<mxfile host="app.diagrams.net" agent="Mozilla/5.0 (Windows NT 10.0; Win64; x64) AppleWebKit/537.36 (KHTML, like Gecko) Chrome/129.0.0.0 Safari/537.36" version="24.7.15" pages="6">
  <diagram name="第 1 页" id="Nmt11meTAB8T6_UAmv4T">
    <mxGraphModel grid="0" page="0" gridSize="10" guides="1" tooltips="1" connect="1" arrows="1" fold="1" pageScale="1" pageWidth="827" pageHeight="1169" math="0" shadow="0">
      <root>
        <mxCell id="0" />
        <mxCell id="1" parent="0" />
        <mxCell id="AmKcP3P-3iyAkGZ-0VH5-4" value="Client" style="whiteSpace=wrap;html=1;align=center;fillColor=#66B2FF;" vertex="1" parent="1">
          <mxGeometry x="-149" y="-69" width="100" height="40" as="geometry" />
        </mxCell>
        <mxCell id="AmKcP3P-3iyAkGZ-0VH5-9" value="Server" style="whiteSpace=wrap;html=1;align=center;fillColor=#66B2FF;" vertex="1" parent="1">
          <mxGeometry x="74" y="-69" width="100" height="40" as="geometry" />
        </mxCell>
        <mxCell id="AmKcP3P-3iyAkGZ-0VH5-10" value="Database" style="whiteSpace=wrap;html=1;align=center;fillColor=#66B2FF;" vertex="1" parent="1">
          <mxGeometry x="274" y="-69" width="100" height="40" as="geometry" />
        </mxCell>
        <mxCell id="AmKcP3P-3iyAkGZ-0VH5-11" value="" style="endArrow=none;html=1;rounded=0;dashed=1;dashPattern=1 2;exitX=0.5;exitY=1;exitDx=0;exitDy=0;" edge="1" parent="1" source="AmKcP3P-3iyAkGZ-0VH5-4">
          <mxGeometry relative="1" as="geometry">
            <mxPoint x="-138" y="27" as="sourcePoint" />
            <mxPoint x="-99" y="7" as="targetPoint" />
          </mxGeometry>
        </mxCell>
        <mxCell id="AmKcP3P-3iyAkGZ-0VH5-12" value="" style="resizable=0;html=1;whiteSpace=wrap;align=left;verticalAlign=bottom;" connectable="0" vertex="1" parent="AmKcP3P-3iyAkGZ-0VH5-11">
          <mxGeometry x="-1" relative="1" as="geometry" />
        </mxCell>
        <mxCell id="AmKcP3P-3iyAkGZ-0VH5-13" value="" style="resizable=0;html=1;whiteSpace=wrap;align=right;verticalAlign=bottom;" connectable="0" vertex="1" parent="AmKcP3P-3iyAkGZ-0VH5-11">
          <mxGeometry x="1" relative="1" as="geometry" />
        </mxCell>
        <mxCell id="AmKcP3P-3iyAkGZ-0VH5-14" value="" style="whiteSpace=wrap;html=1;align=center;rotation=-90;fillColor=#66B2FF;" vertex="1" parent="1">
          <mxGeometry x="-512.25" y="399.25" width="826.75" height="40.25" as="geometry" />
        </mxCell>
        <mxCell id="AmKcP3P-3iyAkGZ-0VH5-15" value="" style="endArrow=none;html=1;rounded=0;dashed=1;dashPattern=1 2;" edge="1" parent="1">
          <mxGeometry relative="1" as="geometry">
            <mxPoint x="124" y="-27" as="sourcePoint" />
            <mxPoint x="124" y="8" as="targetPoint" />
          </mxGeometry>
        </mxCell>
        <mxCell id="AmKcP3P-3iyAkGZ-0VH5-16" value="" style="resizable=0;html=1;whiteSpace=wrap;align=left;verticalAlign=bottom;" connectable="0" vertex="1" parent="AmKcP3P-3iyAkGZ-0VH5-15">
          <mxGeometry x="-1" relative="1" as="geometry" />
        </mxCell>
        <mxCell id="AmKcP3P-3iyAkGZ-0VH5-17" value="" style="resizable=0;html=1;whiteSpace=wrap;align=right;verticalAlign=bottom;" connectable="0" vertex="1" parent="AmKcP3P-3iyAkGZ-0VH5-15">
          <mxGeometry x="1" relative="1" as="geometry" />
        </mxCell>
        <mxCell id="AmKcP3P-3iyAkGZ-0VH5-18" value="" style="endArrow=none;html=1;rounded=0;dashed=1;dashPattern=1 2;" edge="1" parent="1">
          <mxGeometry relative="1" as="geometry">
            <mxPoint x="-353" y="13" as="sourcePoint" />
            <mxPoint x="-350" y="541" as="targetPoint" />
          </mxGeometry>
        </mxCell>
        <mxCell id="AmKcP3P-3iyAkGZ-0VH5-22" value="&amp;lt;&amp;lt;Start Application&amp;gt;&amp;gt;" style="edgeStyle=elbowEdgeStyle;elbow=vertical;endArrow=classic;html=1;curved=0;rounded=0;endSize=8;startSize=8;entryX=0.75;entryY=0;entryDx=0;entryDy=0;" edge="1" parent="1">
          <mxGeometry width="50" height="50" relative="1" as="geometry">
            <mxPoint x="-351" y="34" as="sourcePoint" />
            <mxPoint x="-119" y="34" as="targetPoint" />
            <Array as="points">
              <mxPoint x="-199" y="34.5" />
              <mxPoint x="-242" y="-36.5" />
            </Array>
          </mxGeometry>
        </mxCell>
        <mxCell id="AmKcP3P-3iyAkGZ-0VH5-23" value="" style="endArrow=classic;html=1;rounded=0;entryX=0.5;entryY=0;entryDx=0;entryDy=0;" edge="1" parent="1">
          <mxGeometry width="50" height="50" relative="1" as="geometry">
            <mxPoint x="-77" y="22" as="sourcePoint" />
            <mxPoint x="107" y="21" as="targetPoint" />
          </mxGeometry>
        </mxCell>
        <mxCell id="AmKcP3P-3iyAkGZ-0VH5-25" value="request specific user data" style="edgeLabel;html=1;align=center;verticalAlign=middle;resizable=0;points=[];" vertex="1" connectable="0" parent="AmKcP3P-3iyAkGZ-0VH5-23">
          <mxGeometry x="0.07" y="-2" relative="1" as="geometry">
            <mxPoint y="-2" as="offset" />
          </mxGeometry>
        </mxCell>
        <mxCell id="AmKcP3P-3iyAkGZ-0VH5-24" value="" style="whiteSpace=wrap;html=1;align=center;rotation=-90;fillColor=#66B2FF;" vertex="1" parent="1">
          <mxGeometry x="91" y="21" width="70" height="40" as="geometry" />
        </mxCell>
        <mxCell id="AmKcP3P-3iyAkGZ-0VH5-31" value="" style="endArrow=classic;html=1;rounded=0;dashed=1;" edge="1" parent="1">
          <mxGeometry width="50" height="50" relative="1" as="geometry">
            <mxPoint x="108" y="58" as="sourcePoint" />
            <mxPoint x="-79" y="57" as="targetPoint" />
          </mxGeometry>
        </mxCell>
        <mxCell id="AmKcP3P-3iyAkGZ-0VH5-32" value="respond with requested user data" style="edgeLabel;html=1;align=center;verticalAlign=middle;resizable=0;points=[];" vertex="1" connectable="0" parent="AmKcP3P-3iyAkGZ-0VH5-31">
          <mxGeometry x="0.07" y="-2" relative="1" as="geometry">
            <mxPoint x="12" y="-1" as="offset" />
          </mxGeometry>
        </mxCell>
        <mxCell id="AmKcP3P-3iyAkGZ-0VH5-35" value="" style="whiteSpace=wrap;html=1;align=center;rotation=-90;fillColor=#66B2FF;" vertex="1" parent="1">
          <mxGeometry x="291" y="21" width="70" height="40" as="geometry" />
        </mxCell>
        <mxCell id="AmKcP3P-3iyAkGZ-0VH5-36" value="" style="endArrow=none;html=1;rounded=0;dashed=1;dashPattern=1 2;" edge="1" parent="1">
          <mxGeometry relative="1" as="geometry">
            <mxPoint x="324" y="-28" as="sourcePoint" />
            <mxPoint x="324" y="7" as="targetPoint" />
          </mxGeometry>
        </mxCell>
        <mxCell id="AmKcP3P-3iyAkGZ-0VH5-37" value="" style="resizable=0;html=1;whiteSpace=wrap;align=left;verticalAlign=bottom;" connectable="0" vertex="1" parent="AmKcP3P-3iyAkGZ-0VH5-36">
          <mxGeometry x="-1" relative="1" as="geometry" />
        </mxCell>
        <mxCell id="AmKcP3P-3iyAkGZ-0VH5-38" value="" style="resizable=0;html=1;whiteSpace=wrap;align=right;verticalAlign=bottom;" connectable="0" vertex="1" parent="AmKcP3P-3iyAkGZ-0VH5-36">
          <mxGeometry x="1" relative="1" as="geometry" />
        </mxCell>
        <mxCell id="AmKcP3P-3iyAkGZ-0VH5-39" value="" style="endArrow=classic;html=1;rounded=0;" edge="1" parent="1">
          <mxGeometry width="50" height="50" relative="1" as="geometry">
            <mxPoint x="149" y="16" as="sourcePoint" />
            <mxPoint x="308" y="16" as="targetPoint" />
          </mxGeometry>
        </mxCell>
        <mxCell id="AmKcP3P-3iyAkGZ-0VH5-40" value="request specific user data" style="edgeLabel;html=1;align=center;verticalAlign=middle;resizable=0;points=[];" vertex="1" connectable="0" parent="AmKcP3P-3iyAkGZ-0VH5-39">
          <mxGeometry x="0.07" y="-2" relative="1" as="geometry">
            <mxPoint as="offset" />
          </mxGeometry>
        </mxCell>
        <mxCell id="AmKcP3P-3iyAkGZ-0VH5-41" value="" style="endArrow=classic;html=1;rounded=0;dashed=1;" edge="1" parent="1">
          <mxGeometry width="50" height="50" relative="1" as="geometry">
            <mxPoint x="306" y="60.67" as="sourcePoint" />
            <mxPoint x="146" y="60" as="targetPoint" />
          </mxGeometry>
        </mxCell>
        <mxCell id="AmKcP3P-3iyAkGZ-0VH5-42" value="respond with&amp;nbsp;&lt;div&gt;requested user data&lt;/div&gt;&lt;div&gt;or NULL&lt;/div&gt;" style="edgeLabel;html=1;align=center;verticalAlign=middle;resizable=0;points=[];" vertex="1" connectable="0" parent="AmKcP3P-3iyAkGZ-0VH5-41">
          <mxGeometry x="0.07" y="-2" relative="1" as="geometry">
            <mxPoint x="12" y="-1" as="offset" />
          </mxGeometry>
        </mxCell>
        <mxCell id="AmKcP3P-3iyAkGZ-0VH5-43" value="" style="whiteSpace=wrap;html=1;align=center;rotation=-90;fillColor=#66B2FF;" vertex="1" parent="1">
          <mxGeometry x="89" y="124" width="70" height="40" as="geometry" />
        </mxCell>
        <mxCell id="AmKcP3P-3iyAkGZ-0VH5-44" value="" style="endArrow=none;html=1;rounded=0;dashed=1;dashPattern=1 2;" edge="1" parent="1">
          <mxGeometry relative="1" as="geometry">
            <mxPoint x="125" y="75" as="sourcePoint" />
            <mxPoint x="125" y="110" as="targetPoint" />
          </mxGeometry>
        </mxCell>
        <mxCell id="AmKcP3P-3iyAkGZ-0VH5-45" value="" style="resizable=0;html=1;whiteSpace=wrap;align=left;verticalAlign=bottom;" connectable="0" vertex="1" parent="AmKcP3P-3iyAkGZ-0VH5-44">
          <mxGeometry x="-1" relative="1" as="geometry" />
        </mxCell>
        <mxCell id="AmKcP3P-3iyAkGZ-0VH5-46" value="" style="resizable=0;html=1;whiteSpace=wrap;align=right;verticalAlign=bottom;" connectable="0" vertex="1" parent="AmKcP3P-3iyAkGZ-0VH5-44">
          <mxGeometry x="1" relative="1" as="geometry" />
        </mxCell>
        <mxCell id="AmKcP3P-3iyAkGZ-0VH5-47" value="" style="whiteSpace=wrap;html=1;align=center;rotation=-90;fillColor=#66B2FF;" vertex="1" parent="1">
          <mxGeometry x="289" y="124" width="70" height="40" as="geometry" />
        </mxCell>
        <mxCell id="AmKcP3P-3iyAkGZ-0VH5-48" value="" style="endArrow=none;html=1;rounded=0;dashed=1;dashPattern=1 2;" edge="1" parent="1">
          <mxGeometry relative="1" as="geometry">
            <mxPoint x="325" y="75" as="sourcePoint" />
            <mxPoint x="325" y="110" as="targetPoint" />
          </mxGeometry>
        </mxCell>
        <mxCell id="AmKcP3P-3iyAkGZ-0VH5-49" value="" style="resizable=0;html=1;whiteSpace=wrap;align=left;verticalAlign=bottom;" connectable="0" vertex="1" parent="AmKcP3P-3iyAkGZ-0VH5-48">
          <mxGeometry x="-1" relative="1" as="geometry" />
        </mxCell>
        <mxCell id="AmKcP3P-3iyAkGZ-0VH5-50" value="" style="resizable=0;html=1;whiteSpace=wrap;align=right;verticalAlign=bottom;" connectable="0" vertex="1" parent="AmKcP3P-3iyAkGZ-0VH5-48">
          <mxGeometry x="1" relative="1" as="geometry" />
        </mxCell>
        <mxCell id="AmKcP3P-3iyAkGZ-0VH5-51" value="" style="endArrow=classic;html=1;rounded=0;entryX=0.5;entryY=0;entryDx=0;entryDy=0;" edge="1" parent="1">
          <mxGeometry width="50" height="50" relative="1" as="geometry">
            <mxPoint x="-78" y="133" as="sourcePoint" />
            <mxPoint x="106" y="132" as="targetPoint" />
          </mxGeometry>
        </mxCell>
        <mxCell id="AmKcP3P-3iyAkGZ-0VH5-52" value="request to add user data" style="edgeLabel;html=1;align=center;verticalAlign=middle;resizable=0;points=[];" vertex="1" connectable="0" parent="AmKcP3P-3iyAkGZ-0VH5-51">
          <mxGeometry x="0.07" y="-2" relative="1" as="geometry">
            <mxPoint x="-7" y="-2" as="offset" />
          </mxGeometry>
        </mxCell>
        <mxCell id="AmKcP3P-3iyAkGZ-0VH5-53" value="" style="endArrow=classic;html=1;rounded=0;dashed=1;" edge="1" parent="1">
          <mxGeometry width="50" height="50" relative="1" as="geometry">
            <mxPoint x="105" y="158" as="sourcePoint" />
            <mxPoint x="-82" y="157" as="targetPoint" />
          </mxGeometry>
        </mxCell>
        <mxCell id="AmKcP3P-3iyAkGZ-0VH5-54" value="response with addition&lt;div&gt;status (success or&lt;/div&gt;&lt;div&gt;fail)&lt;/div&gt;" style="edgeLabel;html=1;align=center;verticalAlign=middle;resizable=0;points=[];" vertex="1" connectable="0" parent="AmKcP3P-3iyAkGZ-0VH5-53">
          <mxGeometry x="0.07" y="-2" relative="1" as="geometry">
            <mxPoint x="15" y="9" as="offset" />
          </mxGeometry>
        </mxCell>
        <mxCell id="AmKcP3P-3iyAkGZ-0VH5-57" value="" style="endArrow=classic;html=1;rounded=0;" edge="1" parent="1">
          <mxGeometry width="50" height="50" relative="1" as="geometry">
            <mxPoint x="143" y="122.67" as="sourcePoint" />
            <mxPoint x="302" y="122.67" as="targetPoint" />
          </mxGeometry>
        </mxCell>
        <mxCell id="AmKcP3P-3iyAkGZ-0VH5-58" value="request specific user data" style="edgeLabel;html=1;align=center;verticalAlign=middle;resizable=0;points=[];" vertex="1" connectable="0" parent="AmKcP3P-3iyAkGZ-0VH5-57">
          <mxGeometry x="0.07" y="-2" relative="1" as="geometry">
            <mxPoint as="offset" />
          </mxGeometry>
        </mxCell>
        <mxCell id="AmKcP3P-3iyAkGZ-0VH5-63" value="" style="whiteSpace=wrap;html=1;align=center;rotation=-90;fillColor=#66B2FF;" vertex="1" parent="1">
          <mxGeometry x="89" y="227" width="70" height="40" as="geometry" />
        </mxCell>
        <mxCell id="AmKcP3P-3iyAkGZ-0VH5-64" value="" style="endArrow=none;html=1;rounded=0;dashed=1;dashPattern=1 2;" edge="1" parent="1">
          <mxGeometry relative="1" as="geometry">
            <mxPoint x="125" y="178" as="sourcePoint" />
            <mxPoint x="125" y="213" as="targetPoint" />
          </mxGeometry>
        </mxCell>
        <mxCell id="AmKcP3P-3iyAkGZ-0VH5-65" value="" style="resizable=0;html=1;whiteSpace=wrap;align=left;verticalAlign=bottom;" connectable="0" vertex="1" parent="AmKcP3P-3iyAkGZ-0VH5-64">
          <mxGeometry x="-1" relative="1" as="geometry" />
        </mxCell>
        <mxCell id="AmKcP3P-3iyAkGZ-0VH5-66" value="" style="resizable=0;html=1;whiteSpace=wrap;align=right;verticalAlign=bottom;" connectable="0" vertex="1" parent="AmKcP3P-3iyAkGZ-0VH5-64">
          <mxGeometry x="1" relative="1" as="geometry" />
        </mxCell>
        <mxCell id="AmKcP3P-3iyAkGZ-0VH5-67" value="" style="endArrow=classic;html=1;rounded=0;entryX=0.5;entryY=0;entryDx=0;entryDy=0;" edge="1" parent="1">
          <mxGeometry width="50" height="50" relative="1" as="geometry">
            <mxPoint x="-78" y="234" as="sourcePoint" />
            <mxPoint x="106" y="233" as="targetPoint" />
          </mxGeometry>
        </mxCell>
        <mxCell id="AmKcP3P-3iyAkGZ-0VH5-68" value="request to delete user data" style="edgeLabel;html=1;align=center;verticalAlign=middle;resizable=0;points=[];" vertex="1" connectable="0" parent="AmKcP3P-3iyAkGZ-0VH5-67">
          <mxGeometry x="0.07" y="-2" relative="1" as="geometry">
            <mxPoint x="-7" y="-2" as="offset" />
          </mxGeometry>
        </mxCell>
        <mxCell id="AmKcP3P-3iyAkGZ-0VH5-69" value="" style="endArrow=classic;html=1;rounded=0;dashed=1;" edge="1" parent="1">
          <mxGeometry width="50" height="50" relative="1" as="geometry">
            <mxPoint x="104" y="268" as="sourcePoint" />
            <mxPoint x="-83" y="267" as="targetPoint" />
          </mxGeometry>
        </mxCell>
        <mxCell id="AmKcP3P-3iyAkGZ-0VH5-70" value="response with deletation&lt;div&gt;status&lt;/div&gt;" style="edgeLabel;html=1;align=center;verticalAlign=middle;resizable=0;points=[];" vertex="1" connectable="0" parent="AmKcP3P-3iyAkGZ-0VH5-69">
          <mxGeometry x="0.07" y="-2" relative="1" as="geometry">
            <mxPoint x="15" y="9" as="offset" />
          </mxGeometry>
        </mxCell>
        <mxCell id="AmKcP3P-3iyAkGZ-0VH5-71" value="" style="whiteSpace=wrap;html=1;align=center;rotation=-90;fillColor=#66B2FF;" vertex="1" parent="1">
          <mxGeometry x="289" y="228" width="70" height="40" as="geometry" />
        </mxCell>
        <mxCell id="AmKcP3P-3iyAkGZ-0VH5-72" value="" style="endArrow=none;html=1;rounded=0;dashed=1;dashPattern=1 2;" edge="1" parent="1">
          <mxGeometry relative="1" as="geometry">
            <mxPoint x="325" y="179" as="sourcePoint" />
            <mxPoint x="325" y="214" as="targetPoint" />
          </mxGeometry>
        </mxCell>
        <mxCell id="AmKcP3P-3iyAkGZ-0VH5-73" value="" style="resizable=0;html=1;whiteSpace=wrap;align=left;verticalAlign=bottom;" connectable="0" vertex="1" parent="AmKcP3P-3iyAkGZ-0VH5-72">
          <mxGeometry x="-1" relative="1" as="geometry" />
        </mxCell>
        <mxCell id="AmKcP3P-3iyAkGZ-0VH5-74" value="" style="resizable=0;html=1;whiteSpace=wrap;align=right;verticalAlign=bottom;" connectable="0" vertex="1" parent="AmKcP3P-3iyAkGZ-0VH5-72">
          <mxGeometry x="1" relative="1" as="geometry" />
        </mxCell>
        <mxCell id="AmKcP3P-3iyAkGZ-0VH5-75" value="" style="endArrow=classic;html=1;rounded=0;" edge="1" parent="1">
          <mxGeometry width="50" height="50" relative="1" as="geometry">
            <mxPoint x="144" y="232" as="sourcePoint" />
            <mxPoint x="303" y="232" as="targetPoint" />
          </mxGeometry>
        </mxCell>
        <mxCell id="AmKcP3P-3iyAkGZ-0VH5-76" value="delete specific user data" style="edgeLabel;html=1;align=center;verticalAlign=middle;resizable=0;points=[];" vertex="1" connectable="0" parent="AmKcP3P-3iyAkGZ-0VH5-75">
          <mxGeometry x="0.07" y="-2" relative="1" as="geometry">
            <mxPoint as="offset" />
          </mxGeometry>
        </mxCell>
        <mxCell id="AmKcP3P-3iyAkGZ-0VH5-77" value="" style="whiteSpace=wrap;html=1;align=center;rotation=-90;fillColor=#66B2FF;" vertex="1" parent="1">
          <mxGeometry x="89" y="332" width="70" height="40" as="geometry" />
        </mxCell>
        <mxCell id="AmKcP3P-3iyAkGZ-0VH5-78" value="" style="endArrow=none;html=1;rounded=0;dashed=1;dashPattern=1 2;" edge="1" parent="1">
          <mxGeometry relative="1" as="geometry">
            <mxPoint x="125" y="283" as="sourcePoint" />
            <mxPoint x="125" y="318" as="targetPoint" />
          </mxGeometry>
        </mxCell>
        <mxCell id="AmKcP3P-3iyAkGZ-0VH5-79" value="" style="resizable=0;html=1;whiteSpace=wrap;align=left;verticalAlign=bottom;" connectable="0" vertex="1" parent="AmKcP3P-3iyAkGZ-0VH5-78">
          <mxGeometry x="-1" relative="1" as="geometry" />
        </mxCell>
        <mxCell id="AmKcP3P-3iyAkGZ-0VH5-80" value="" style="resizable=0;html=1;whiteSpace=wrap;align=right;verticalAlign=bottom;" connectable="0" vertex="1" parent="AmKcP3P-3iyAkGZ-0VH5-78">
          <mxGeometry x="1" relative="1" as="geometry" />
        </mxCell>
        <mxCell id="AmKcP3P-3iyAkGZ-0VH5-81" value="" style="whiteSpace=wrap;html=1;align=center;rotation=-90;fillColor=#66B2FF;" vertex="1" parent="1">
          <mxGeometry x="289" y="333" width="70" height="40" as="geometry" />
        </mxCell>
        <mxCell id="AmKcP3P-3iyAkGZ-0VH5-82" value="" style="endArrow=none;html=1;rounded=0;dashed=1;dashPattern=1 2;" edge="1" parent="1">
          <mxGeometry relative="1" as="geometry">
            <mxPoint x="325" y="284" as="sourcePoint" />
            <mxPoint x="325" y="319" as="targetPoint" />
          </mxGeometry>
        </mxCell>
        <mxCell id="AmKcP3P-3iyAkGZ-0VH5-83" value="" style="resizable=0;html=1;whiteSpace=wrap;align=left;verticalAlign=bottom;" connectable="0" vertex="1" parent="AmKcP3P-3iyAkGZ-0VH5-82">
          <mxGeometry x="-1" relative="1" as="geometry" />
        </mxCell>
        <mxCell id="AmKcP3P-3iyAkGZ-0VH5-84" value="" style="resizable=0;html=1;whiteSpace=wrap;align=right;verticalAlign=bottom;" connectable="0" vertex="1" parent="AmKcP3P-3iyAkGZ-0VH5-82">
          <mxGeometry x="1" relative="1" as="geometry" />
        </mxCell>
        <mxCell id="AmKcP3P-3iyAkGZ-0VH5-85" value="" style="endArrow=classic;html=1;rounded=0;entryX=0.5;entryY=0;entryDx=0;entryDy=0;" edge="1" parent="1">
          <mxGeometry width="50" height="50" relative="1" as="geometry">
            <mxPoint x="-80" y="334" as="sourcePoint" />
            <mxPoint x="104" y="333" as="targetPoint" />
          </mxGeometry>
        </mxCell>
        <mxCell id="AmKcP3P-3iyAkGZ-0VH5-86" value="request to change&lt;div&gt;current user data&lt;/div&gt;" style="edgeLabel;html=1;align=center;verticalAlign=middle;resizable=0;points=[];" vertex="1" connectable="0" parent="AmKcP3P-3iyAkGZ-0VH5-85">
          <mxGeometry x="0.07" y="-2" relative="1" as="geometry">
            <mxPoint x="-7" y="-2" as="offset" />
          </mxGeometry>
        </mxCell>
        <mxCell id="AmKcP3P-3iyAkGZ-0VH5-87" value="" style="endArrow=classic;html=1;rounded=0;dashed=1;" edge="1" parent="1">
          <mxGeometry width="50" height="50" relative="1" as="geometry">
            <mxPoint x="103" y="370" as="sourcePoint" />
            <mxPoint x="-78" y="369" as="targetPoint" />
          </mxGeometry>
        </mxCell>
        <mxCell id="AmKcP3P-3iyAkGZ-0VH5-88" value="response with updated data" style="edgeLabel;html=1;align=center;verticalAlign=middle;resizable=0;points=[];" vertex="1" connectable="0" parent="AmKcP3P-3iyAkGZ-0VH5-87">
          <mxGeometry x="0.07" y="-2" relative="1" as="geometry">
            <mxPoint x="15" y="9" as="offset" />
          </mxGeometry>
        </mxCell>
        <mxCell id="AmKcP3P-3iyAkGZ-0VH5-89" value="" style="endArrow=classic;html=1;rounded=0;exitX=0.686;exitY=0.9;exitDx=0;exitDy=0;exitPerimeter=0;" edge="1" parent="1" source="AmKcP3P-3iyAkGZ-0VH5-77">
          <mxGeometry width="50" height="50" relative="1" as="geometry">
            <mxPoint x="148" y="339" as="sourcePoint" />
            <mxPoint x="305" y="339" as="targetPoint" />
          </mxGeometry>
        </mxCell>
        <mxCell id="AmKcP3P-3iyAkGZ-0VH5-90" value="request to change&lt;div&gt;user profile data&lt;/div&gt;" style="edgeLabel;html=1;align=center;verticalAlign=middle;resizable=0;points=[];" vertex="1" connectable="0" parent="AmKcP3P-3iyAkGZ-0VH5-89">
          <mxGeometry x="0.07" y="-2" relative="1" as="geometry">
            <mxPoint as="offset" />
          </mxGeometry>
        </mxCell>
        <mxCell id="AmKcP3P-3iyAkGZ-0VH5-91" value="" style="endArrow=classic;html=1;rounded=0;dashed=1;" edge="1" parent="1">
          <mxGeometry width="50" height="50" relative="1" as="geometry">
            <mxPoint x="304" y="378.67" as="sourcePoint" />
            <mxPoint x="144" y="378" as="targetPoint" />
          </mxGeometry>
        </mxCell>
        <mxCell id="AmKcP3P-3iyAkGZ-0VH5-92" value="respond with&amp;nbsp;&lt;div&gt;new user profile&lt;/div&gt;&lt;div&gt;data&lt;/div&gt;" style="edgeLabel;html=1;align=center;verticalAlign=middle;resizable=0;points=[];" vertex="1" connectable="0" parent="AmKcP3P-3iyAkGZ-0VH5-91">
          <mxGeometry x="0.07" y="-2" relative="1" as="geometry">
            <mxPoint x="12" y="-1" as="offset" />
          </mxGeometry>
        </mxCell>
        <mxCell id="AmKcP3P-3iyAkGZ-0VH5-93" value="" style="whiteSpace=wrap;html=1;align=center;rotation=-90;fillColor=#66B2FF;" vertex="1" parent="1">
          <mxGeometry x="46.63" y="477.37" width="155" height="40.26" as="geometry" />
        </mxCell>
        <mxCell id="AmKcP3P-3iyAkGZ-0VH5-94" value="" style="endArrow=none;html=1;rounded=0;dashed=1;dashPattern=1 2;" edge="1" parent="1">
          <mxGeometry relative="1" as="geometry">
            <mxPoint x="125" y="387" as="sourcePoint" />
            <mxPoint x="125" y="422" as="targetPoint" />
          </mxGeometry>
        </mxCell>
        <mxCell id="AmKcP3P-3iyAkGZ-0VH5-95" value="" style="resizable=0;html=1;whiteSpace=wrap;align=left;verticalAlign=bottom;" connectable="0" vertex="1" parent="AmKcP3P-3iyAkGZ-0VH5-94">
          <mxGeometry x="-1" relative="1" as="geometry" />
        </mxCell>
        <mxCell id="AmKcP3P-3iyAkGZ-0VH5-96" value="" style="resizable=0;html=1;whiteSpace=wrap;align=right;verticalAlign=bottom;" connectable="0" vertex="1" parent="AmKcP3P-3iyAkGZ-0VH5-94">
          <mxGeometry x="1" relative="1" as="geometry" />
        </mxCell>
        <mxCell id="AmKcP3P-3iyAkGZ-0VH5-97" value="" style="whiteSpace=wrap;html=1;align=center;rotation=-90;fillColor=#66B2FF;" vertex="1" parent="1">
          <mxGeometry x="246.5" y="479.5" width="155" height="40" as="geometry" />
        </mxCell>
        <mxCell id="AmKcP3P-3iyAkGZ-0VH5-98" value="" style="endArrow=none;html=1;rounded=0;dashed=1;dashPattern=1 2;" edge="1" parent="1">
          <mxGeometry relative="1" as="geometry">
            <mxPoint x="325" y="388" as="sourcePoint" />
            <mxPoint x="325" y="423" as="targetPoint" />
          </mxGeometry>
        </mxCell>
        <mxCell id="AmKcP3P-3iyAkGZ-0VH5-99" value="" style="resizable=0;html=1;whiteSpace=wrap;align=left;verticalAlign=bottom;" connectable="0" vertex="1" parent="AmKcP3P-3iyAkGZ-0VH5-98">
          <mxGeometry x="-1" relative="1" as="geometry" />
        </mxCell>
        <mxCell id="AmKcP3P-3iyAkGZ-0VH5-100" value="" style="resizable=0;html=1;whiteSpace=wrap;align=right;verticalAlign=bottom;" connectable="0" vertex="1" parent="AmKcP3P-3iyAkGZ-0VH5-98">
          <mxGeometry x="1" relative="1" as="geometry" />
        </mxCell>
        <mxCell id="AmKcP3P-3iyAkGZ-0VH5-101" value="" style="ellipse;whiteSpace=wrap;html=1;fillColor=#000000;" vertex="1" parent="1">
          <mxGeometry x="-379" y="-33" width="50" height="49" as="geometry" />
        </mxCell>
        <mxCell id="AmKcP3P-3iyAkGZ-0VH5-102" value="" style="endArrow=classic;html=1;rounded=0;entryX=0.5;entryY=0;entryDx=0;entryDy=0;" edge="1" parent="1">
          <mxGeometry width="50" height="50" relative="1" as="geometry">
            <mxPoint x="-78" y="444" as="sourcePoint" />
            <mxPoint x="106" y="443" as="targetPoint" />
          </mxGeometry>
        </mxCell>
        <mxCell id="AmKcP3P-3iyAkGZ-0VH5-103" value="add / edit new entries" style="edgeLabel;html=1;align=center;verticalAlign=middle;resizable=0;points=[];" vertex="1" connectable="0" parent="AmKcP3P-3iyAkGZ-0VH5-102">
          <mxGeometry x="0.07" y="-2" relative="1" as="geometry">
            <mxPoint x="-7" y="-2" as="offset" />
          </mxGeometry>
        </mxCell>
        <mxCell id="AmKcP3P-3iyAkGZ-0VH5-104" value="" style="rounded=0;whiteSpace=wrap;html=1;fillColor=#FFBE85;" vertex="1" parent="1">
          <mxGeometry x="138" y="421" width="45" height="46" as="geometry" />
        </mxCell>
        <mxCell id="AmKcP3P-3iyAkGZ-0VH5-106" value="" style="edgeStyle=elbowEdgeStyle;elbow=horizontal;endArrow=classic;html=1;curved=0;rounded=0;endSize=8;startSize=8;entryX=1;entryY=1;entryDx=0;entryDy=0;" edge="1" parent="1" target="AmKcP3P-3iyAkGZ-0VH5-104">
          <mxGeometry width="50" height="50" relative="1" as="geometry">
            <mxPoint x="183" y="421" as="sourcePoint" />
            <mxPoint x="286" y="421" as="targetPoint" />
            <Array as="points">
              <mxPoint x="242" y="443" />
            </Array>
          </mxGeometry>
        </mxCell>
        <mxCell id="AmKcP3P-3iyAkGZ-0VH5-107" value="Review entries content" style="edgeLabel;html=1;align=center;verticalAlign=middle;resizable=0;points=[];" vertex="1" connectable="0" parent="AmKcP3P-3iyAkGZ-0VH5-106">
          <mxGeometry x="-0.6355" y="-1" relative="1" as="geometry">
            <mxPoint x="29" y="2" as="offset" />
          </mxGeometry>
        </mxCell>
        <mxCell id="AmKcP3P-3iyAkGZ-0VH5-108" value="" style="endArrow=classic;html=1;rounded=0;exitX=0.686;exitY=0.9;exitDx=0;exitDy=0;exitPerimeter=0;" edge="1" parent="1">
          <mxGeometry width="50" height="50" relative="1" as="geometry">
            <mxPoint x="142" y="505" as="sourcePoint" />
            <mxPoint x="307" y="505" as="targetPoint" />
          </mxGeometry>
        </mxCell>
        <mxCell id="AmKcP3P-3iyAkGZ-0VH5-110" value="request to update&amp;nbsp;&lt;div&gt;user entries data&lt;/div&gt;" style="edgeLabel;html=1;align=center;verticalAlign=middle;resizable=0;points=[];" vertex="1" connectable="0" parent="AmKcP3P-3iyAkGZ-0VH5-108">
          <mxGeometry x="-0.0599" y="1" relative="1" as="geometry">
            <mxPoint as="offset" />
          </mxGeometry>
        </mxCell>
        <mxCell id="AmKcP3P-3iyAkGZ-0VH5-111" value="" style="endArrow=classic;html=1;rounded=0;dashed=1;" edge="1" parent="1">
          <mxGeometry width="50" height="50" relative="1" as="geometry">
            <mxPoint x="303" y="549.6700000000001" as="sourcePoint" />
            <mxPoint x="143" y="549" as="targetPoint" />
          </mxGeometry>
        </mxCell>
        <mxCell id="AmKcP3P-3iyAkGZ-0VH5-112" value="respond with&amp;nbsp;&lt;div&gt;updated entries data&lt;/div&gt;" style="edgeLabel;html=1;align=center;verticalAlign=middle;resizable=0;points=[];" vertex="1" connectable="0" parent="AmKcP3P-3iyAkGZ-0VH5-111">
          <mxGeometry x="0.07" y="-2" relative="1" as="geometry">
            <mxPoint x="12" y="-1" as="offset" />
          </mxGeometry>
        </mxCell>
        <mxCell id="AmKcP3P-3iyAkGZ-0VH5-113" value="&lt;span style=&quot;color: rgba(0, 0, 0, 0); font-family: monospace; font-size: 0px; text-align: start;&quot;&gt;%3CmxGraphModel%3E%3Croot%3E%3CmxCell%20id%3D%220%22%2F%3E%3CmxCell%20id%3D%221%22%20parent%3D%220%22%2F%3E%3CmxCell%20id%3D%222%22%20value%3D%22%22%20style%3D%22endArrow%3Dclassic%3Bhtml%3D1%3Brounded%3D0%3Bdashed%3D1%3B%22%20edge%3D%221%22%20parent%3D%221%22%3E%3CmxGeometry%20width%3D%2250%22%20height%3D%2250%22%20relative%3D%221%22%20as%3D%22geometry%22%3E%3CmxPoint%20x%3D%22101%22%20y%3D%22549%22%20as%3D%22sourcePoint%22%2F%3E%3CmxPoint%20x%3D%22-80%22%20y%3D%22548%22%20as%3D%22targetPoint%22%2F%3E%3C%2FmxGeometry%3E%3C%2FmxCell%3E%3CmxCell%20id%3D%223%22%20value%3D%22response%20with%20updated%26lt%3Bdiv%26gt%3Bentries%20data%26lt%3B%2Fdiv%26gt%3B%22%20style%3D%22edgeLabel%3Bhtml%3D1%3Balign%3Dcenter%3BverticalAlign%3Dmiddle%3Bresizable%3D0%3Bpoints%3D%5B%5D%3B%22%20vertex%3D%221%22%20connectable%3D%220%22%20parent%3D%222%22%3E%3CmxGeometry%20x%3D%220.07%22%20y%3D%22-2%22%20relative%3D%221%22%20as%3D%22geometry%22%3E%3CmxPoint%20x%3D%2215%22%20y%3D%229%22%20as%3D%22offset%22%2F%3E%3C%2FmxGeometry%3E%3C%2FmxCell%3E%3C%2Froot%3E%3C%2FmxGraphModel%3E&lt;/span&gt;" style="endArrow=classic;html=1;rounded=0;dashed=1;" edge="1" parent="1">
          <mxGeometry width="50" height="50" relative="1" as="geometry">
            <mxPoint x="101" y="549" as="sourcePoint" />
            <mxPoint x="-80" y="548" as="targetPoint" />
          </mxGeometry>
        </mxCell>
        <mxCell id="AmKcP3P-3iyAkGZ-0VH5-114" value="response with updated&lt;div&gt;entries data&lt;/div&gt;" style="edgeLabel;html=1;align=center;verticalAlign=middle;resizable=0;points=[];" vertex="1" connectable="0" parent="AmKcP3P-3iyAkGZ-0VH5-113">
          <mxGeometry x="0.07" y="-2" relative="1" as="geometry">
            <mxPoint x="15" y="9" as="offset" />
          </mxGeometry>
        </mxCell>
        <mxCell id="ealEt6qRELUHXZa2UdhJ-1" value="" style="whiteSpace=wrap;html=1;align=center;rotation=-90;fillColor=#66B2FF;" vertex="1" parent="1">
          <mxGeometry x="44" y="667.5" width="155" height="40" as="geometry" />
        </mxCell>
        <mxCell id="ealEt6qRELUHXZa2UdhJ-2" value="" style="endArrow=none;html=1;rounded=0;dashed=1;dashPattern=1 2;" edge="1" parent="1">
          <mxGeometry relative="1" as="geometry">
            <mxPoint x="122.5" y="576" as="sourcePoint" />
            <mxPoint x="122.5" y="611" as="targetPoint" />
          </mxGeometry>
        </mxCell>
        <mxCell id="ealEt6qRELUHXZa2UdhJ-3" value="" style="resizable=0;html=1;whiteSpace=wrap;align=left;verticalAlign=bottom;" connectable="0" vertex="1" parent="ealEt6qRELUHXZa2UdhJ-2">
          <mxGeometry x="-1" relative="1" as="geometry" />
        </mxCell>
        <mxCell id="ealEt6qRELUHXZa2UdhJ-4" value="" style="resizable=0;html=1;whiteSpace=wrap;align=right;verticalAlign=bottom;" connectable="0" vertex="1" parent="ealEt6qRELUHXZa2UdhJ-2">
          <mxGeometry x="1" relative="1" as="geometry" />
        </mxCell>
        <mxCell id="ealEt6qRELUHXZa2UdhJ-5" value="" style="whiteSpace=wrap;html=1;align=center;rotation=-90;fillColor=#66B2FF;" vertex="1" parent="1">
          <mxGeometry x="244" y="670.5" width="155" height="40" as="geometry" />
        </mxCell>
        <mxCell id="ealEt6qRELUHXZa2UdhJ-6" value="" style="endArrow=none;html=1;rounded=0;dashed=1;dashPattern=1 2;" edge="1" parent="1">
          <mxGeometry relative="1" as="geometry">
            <mxPoint x="322.5" y="579" as="sourcePoint" />
            <mxPoint x="322.5" y="614" as="targetPoint" />
          </mxGeometry>
        </mxCell>
        <mxCell id="ealEt6qRELUHXZa2UdhJ-7" value="" style="resizable=0;html=1;whiteSpace=wrap;align=left;verticalAlign=bottom;" connectable="0" vertex="1" parent="ealEt6qRELUHXZa2UdhJ-6">
          <mxGeometry x="-1" relative="1" as="geometry" />
        </mxCell>
        <mxCell id="ealEt6qRELUHXZa2UdhJ-8" value="" style="resizable=0;html=1;whiteSpace=wrap;align=right;verticalAlign=bottom;" connectable="0" vertex="1" parent="ealEt6qRELUHXZa2UdhJ-6">
          <mxGeometry x="1" relative="1" as="geometry" />
        </mxCell>
        <mxCell id="ealEt6qRELUHXZa2UdhJ-9" value="" style="endArrow=classic;html=1;rounded=0;entryX=0.5;entryY=0;entryDx=0;entryDy=0;" edge="1" parent="1">
          <mxGeometry width="50" height="50" relative="1" as="geometry">
            <mxPoint x="-80" y="647" as="sourcePoint" />
            <mxPoint x="104" y="646" as="targetPoint" />
          </mxGeometry>
        </mxCell>
        <mxCell id="ealEt6qRELUHXZa2UdhJ-10" value="add/edit rating" style="edgeLabel;html=1;align=center;verticalAlign=middle;resizable=0;points=[];" connectable="0" vertex="1" parent="ealEt6qRELUHXZa2UdhJ-9">
          <mxGeometry x="0.07" y="-2" relative="1" as="geometry">
            <mxPoint x="-7" y="-2" as="offset" />
          </mxGeometry>
        </mxCell>
        <mxCell id="ealEt6qRELUHXZa2UdhJ-11" value="" style="rounded=0;whiteSpace=wrap;html=1;fillColor=#FFBE85;" vertex="1" parent="1">
          <mxGeometry x="130" y="610" width="45" height="46" as="geometry" />
        </mxCell>
        <mxCell id="ealEt6qRELUHXZa2UdhJ-12" value="" style="edgeStyle=elbowEdgeStyle;elbow=horizontal;endArrow=classic;html=1;curved=0;rounded=0;endSize=8;startSize=8;entryX=1;entryY=1;entryDx=0;entryDy=0;" edge="1" parent="1" target="ealEt6qRELUHXZa2UdhJ-11">
          <mxGeometry width="50" height="50" relative="1" as="geometry">
            <mxPoint x="175" y="610" as="sourcePoint" />
            <mxPoint x="278" y="610" as="targetPoint" />
            <Array as="points">
              <mxPoint x="234" y="632" />
            </Array>
          </mxGeometry>
        </mxCell>
        <mxCell id="ealEt6qRELUHXZa2UdhJ-13" value="compute rating" style="edgeLabel;html=1;align=center;verticalAlign=middle;resizable=0;points=[];" connectable="0" vertex="1" parent="ealEt6qRELUHXZa2UdhJ-12">
          <mxGeometry x="-0.6355" y="-1" relative="1" as="geometry">
            <mxPoint x="29" y="2" as="offset" />
          </mxGeometry>
        </mxCell>
        <mxCell id="ealEt6qRELUHXZa2UdhJ-14" value="" style="endArrow=classic;html=1;rounded=0;exitX=0.686;exitY=0.9;exitDx=0;exitDy=0;exitPerimeter=0;" edge="1" parent="1">
          <mxGeometry width="50" height="50" relative="1" as="geometry">
            <mxPoint x="138" y="706.17" as="sourcePoint" />
            <mxPoint x="303" y="706.17" as="targetPoint" />
          </mxGeometry>
        </mxCell>
        <mxCell id="ealEt6qRELUHXZa2UdhJ-15" value="request to update&lt;div&gt;user rating data&lt;/div&gt;" style="edgeLabel;html=1;align=center;verticalAlign=middle;resizable=0;points=[];" connectable="0" vertex="1" parent="ealEt6qRELUHXZa2UdhJ-14">
          <mxGeometry x="-0.0599" y="1" relative="1" as="geometry">
            <mxPoint as="offset" />
          </mxGeometry>
        </mxCell>
        <mxCell id="ealEt6qRELUHXZa2UdhJ-16" value="" style="endArrow=classic;html=1;rounded=0;dashed=1;" edge="1" parent="1">
          <mxGeometry width="50" height="50" relative="1" as="geometry">
            <mxPoint x="301" y="743.6700000000001" as="sourcePoint" />
            <mxPoint x="141" y="743" as="targetPoint" />
          </mxGeometry>
        </mxCell>
        <mxCell id="ealEt6qRELUHXZa2UdhJ-17" value="respond with&amp;nbsp;&lt;div&gt;updated rating data&lt;/div&gt;" style="edgeLabel;html=1;align=center;verticalAlign=middle;resizable=0;points=[];" connectable="0" vertex="1" parent="ealEt6qRELUHXZa2UdhJ-16">
          <mxGeometry x="0.07" y="-2" relative="1" as="geometry">
            <mxPoint x="12" y="-1" as="offset" />
          </mxGeometry>
        </mxCell>
        <mxCell id="ealEt6qRELUHXZa2UdhJ-18" value="&lt;span style=&quot;color: rgba(0, 0, 0, 0); font-family: monospace; font-size: 0px; text-align: start;&quot;&gt;%3CmxGraphModel%3E%3Croot%3E%3CmxCell%20id%3D%220%22%2F%3E%3CmxCell%20id%3D%221%22%20parent%3D%220%22%2F%3E%3CmxCell%20id%3D%222%22%20value%3D%22%22%20style%3D%22endArrow%3Dclassic%3Bhtml%3D1%3Brounded%3D0%3Bdashed%3D1%3B%22%20edge%3D%221%22%20parent%3D%221%22%3E%3CmxGeometry%20width%3D%2250%22%20height%3D%2250%22%20relative%3D%221%22%20as%3D%22geometry%22%3E%3CmxPoint%20x%3D%22101%22%20y%3D%22549%22%20as%3D%22sourcePoint%22%2F%3E%3CmxPoint%20x%3D%22-80%22%20y%3D%22548%22%20as%3D%22targetPoint%22%2F%3E%3C%2FmxGeometry%3E%3C%2FmxCell%3E%3CmxCell%20id%3D%223%22%20value%3D%22response%20with%20updated%26lt%3Bdiv%26gt%3Bentries%20data%26lt%3B%2Fdiv%26gt%3B%22%20style%3D%22edgeLabel%3Bhtml%3D1%3Balign%3Dcenter%3BverticalAlign%3Dmiddle%3Bresizable%3D0%3Bpoints%3D%5B%5D%3B%22%20vertex%3D%221%22%20connectable%3D%220%22%20parent%3D%222%22%3E%3CmxGeometry%20x%3D%220.07%22%20y%3D%22-2%22%20relative%3D%221%22%20as%3D%22geometry%22%3E%3CmxPoint%20x%3D%2215%22%20y%3D%229%22%20as%3D%22offset%22%2F%3E%3C%2FmxGeometry%3E%3C%2FmxCell%3E%3C%2Froot%3E%3C%2FmxGraphModel%3E&lt;/span&gt;" style="endArrow=classic;html=1;rounded=0;dashed=1;" edge="1" parent="1">
          <mxGeometry width="50" height="50" relative="1" as="geometry">
            <mxPoint x="101" y="743" as="sourcePoint" />
            <mxPoint x="-80" y="742" as="targetPoint" />
          </mxGeometry>
        </mxCell>
        <mxCell id="ealEt6qRELUHXZa2UdhJ-19" value="response with updated&lt;div&gt;rating data&lt;/div&gt;" style="edgeLabel;html=1;align=center;verticalAlign=middle;resizable=0;points=[];" connectable="0" vertex="1" parent="ealEt6qRELUHXZa2UdhJ-18">
          <mxGeometry x="0.07" y="-2" relative="1" as="geometry">
            <mxPoint x="15" y="9" as="offset" />
          </mxGeometry>
        </mxCell>
      </root>
    </mxGraphModel>
  </diagram>
  <diagram id="31BrL1bdVpohBJkR2FS6" name="sequence of events when users login">
    <mxGraphModel grid="0" page="0" gridSize="10" guides="1" tooltips="1" connect="1" arrows="1" fold="1" pageScale="1" pageWidth="827" pageHeight="1169" math="0" shadow="0">
      <root>
        <mxCell id="0" />
        <mxCell id="1" parent="0" />
        <mxCell id="7Q-p2mdLASTirpOHlqEr-1" value="Client" style="rounded=0;whiteSpace=wrap;html=1;fillColor=#dae8fc;strokeColor=#6C8EBF;" vertex="1" parent="1">
          <mxGeometry x="-265" y="-107" width="89" height="43" as="geometry" />
        </mxCell>
        <mxCell id="7Q-p2mdLASTirpOHlqEr-2" value="Server" style="rounded=0;whiteSpace=wrap;html=1;fillColor=#dae8fc;strokeColor=#6C8EBF;" vertex="1" parent="1">
          <mxGeometry x="-21" y="-107" width="89" height="43" as="geometry" />
        </mxCell>
        <mxCell id="7Q-p2mdLASTirpOHlqEr-3" value="Database" style="rounded=0;whiteSpace=wrap;html=1;fillColor=#dae8fc;strokeColor=#6C8EBF;" vertex="1" parent="1">
          <mxGeometry x="223" y="-107" width="89" height="43" as="geometry" />
        </mxCell>
        <mxCell id="7Q-p2mdLASTirpOHlqEr-4" value="" style="whiteSpace=wrap;html=1;align=center;rotation=-90;fillColor=#66B2FF;" vertex="1" parent="1">
          <mxGeometry x="-546.25" y="272.75" width="650" height="44.5" as="geometry" />
        </mxCell>
        <mxCell id="7Q-p2mdLASTirpOHlqEr-5" value="" style="endArrow=none;html=1;rounded=0;dashed=1;dashPattern=1 2;fontSize=12;startSize=8;endSize=8;curved=1;" edge="1" parent="1">
          <mxGeometry relative="1" as="geometry">
            <mxPoint x="-222.5" y="-64" as="sourcePoint" />
            <mxPoint x="-222.5" y="-29" as="targetPoint" />
          </mxGeometry>
        </mxCell>
        <mxCell id="7Q-p2mdLASTirpOHlqEr-6" value="" style="resizable=0;html=1;whiteSpace=wrap;align=left;verticalAlign=bottom;" connectable="0" vertex="1" parent="7Q-p2mdLASTirpOHlqEr-5">
          <mxGeometry x="-1" relative="1" as="geometry" />
        </mxCell>
        <mxCell id="7Q-p2mdLASTirpOHlqEr-7" value="" style="resizable=0;html=1;whiteSpace=wrap;align=right;verticalAlign=bottom;" connectable="0" vertex="1" parent="7Q-p2mdLASTirpOHlqEr-5">
          <mxGeometry x="1" relative="1" as="geometry" />
        </mxCell>
        <mxCell id="7Q-p2mdLASTirpOHlqEr-8" value="" style="whiteSpace=wrap;html=1;align=center;rotation=-90;fillColor=#66B2FF;" vertex="1" parent="1">
          <mxGeometry x="-246.56" y="220.07" width="540.13" height="40" as="geometry" />
        </mxCell>
        <mxCell id="7Q-p2mdLASTirpOHlqEr-9" value="" style="endArrow=none;html=1;rounded=0;dashed=1;dashPattern=1 2;fontSize=12;startSize=8;endSize=8;curved=1;" edge="1" parent="1">
          <mxGeometry relative="1" as="geometry">
            <mxPoint x="24.5" y="-64" as="sourcePoint" />
            <mxPoint x="24.5" y="-29" as="targetPoint" />
          </mxGeometry>
        </mxCell>
        <mxCell id="7Q-p2mdLASTirpOHlqEr-10" value="" style="resizable=0;html=1;whiteSpace=wrap;align=left;verticalAlign=bottom;" connectable="0" vertex="1" parent="7Q-p2mdLASTirpOHlqEr-9">
          <mxGeometry x="-1" relative="1" as="geometry" />
        </mxCell>
        <mxCell id="7Q-p2mdLASTirpOHlqEr-11" value="" style="resizable=0;html=1;whiteSpace=wrap;align=right;verticalAlign=bottom;" connectable="0" vertex="1" parent="7Q-p2mdLASTirpOHlqEr-9">
          <mxGeometry x="1" relative="1" as="geometry" />
        </mxCell>
        <mxCell id="7Q-p2mdLASTirpOHlqEr-12" value="" style="endArrow=none;html=1;rounded=0;dashed=1;dashPattern=1 2;fontSize=12;startSize=8;endSize=8;curved=1;" edge="1" parent="1">
          <mxGeometry relative="1" as="geometry">
            <mxPoint x="22.830000000000013" y="512" as="sourcePoint" />
            <mxPoint x="23" y="696" as="targetPoint" />
          </mxGeometry>
        </mxCell>
        <mxCell id="7Q-p2mdLASTirpOHlqEr-13" value="" style="resizable=0;html=1;whiteSpace=wrap;align=left;verticalAlign=bottom;" connectable="0" vertex="1" parent="7Q-p2mdLASTirpOHlqEr-12">
          <mxGeometry x="-1" relative="1" as="geometry" />
        </mxCell>
        <mxCell id="7Q-p2mdLASTirpOHlqEr-14" value="" style="resizable=0;html=1;whiteSpace=wrap;align=right;verticalAlign=bottom;" connectable="0" vertex="1" parent="7Q-p2mdLASTirpOHlqEr-12">
          <mxGeometry x="1" relative="1" as="geometry" />
        </mxCell>
        <mxCell id="7Q-p2mdLASTirpOHlqEr-15" value="" style="endArrow=classic;html=1;rounded=0;fontSize=12;startSize=8;endSize=8;curved=1;entryX=0.843;entryY=0.101;entryDx=0;entryDy=0;entryPerimeter=0;" edge="1" parent="1">
          <mxGeometry width="50" height="50" relative="1" as="geometry">
            <mxPoint x="-200" y="11" as="sourcePoint" />
            <mxPoint x="6.539999999999964" y="10.999500000000054" as="targetPoint" />
          </mxGeometry>
        </mxCell>
        <mxCell id="7Q-p2mdLASTirpOHlqEr-16" value="send request of creating a&amp;nbsp;&lt;div&gt;new account, provide with&lt;/div&gt;&lt;div&gt;username, password, preference&lt;/div&gt;&lt;div&gt;and email&lt;/div&gt;" style="edgeLabel;html=1;align=center;verticalAlign=middle;resizable=0;points=[];fontSize=12;" connectable="0" vertex="1" parent="7Q-p2mdLASTirpOHlqEr-15">
          <mxGeometry x="-0.0544" y="1" relative="1" as="geometry">
            <mxPoint x="5" y="-4" as="offset" />
          </mxGeometry>
        </mxCell>
        <mxCell id="7Q-p2mdLASTirpOHlqEr-17" value="" style="whiteSpace=wrap;html=1;align=center;rotation=-90;fillColor=#66B2FF;" vertex="1" parent="1">
          <mxGeometry x="4.38" y="213.13" width="526.25" height="40" as="geometry" />
        </mxCell>
        <mxCell id="7Q-p2mdLASTirpOHlqEr-18" value="" style="endArrow=none;html=1;rounded=0;dashed=1;dashPattern=1 2;fontSize=12;startSize=8;endSize=8;curved=1;" edge="1" parent="1">
          <mxGeometry relative="1" as="geometry">
            <mxPoint x="268.5" y="-64" as="sourcePoint" />
            <mxPoint x="268.5" y="-29" as="targetPoint" />
          </mxGeometry>
        </mxCell>
        <mxCell id="7Q-p2mdLASTirpOHlqEr-19" value="" style="resizable=0;html=1;whiteSpace=wrap;align=left;verticalAlign=bottom;" connectable="0" vertex="1" parent="7Q-p2mdLASTirpOHlqEr-18">
          <mxGeometry x="-1" relative="1" as="geometry" />
        </mxCell>
        <mxCell id="7Q-p2mdLASTirpOHlqEr-20" value="" style="resizable=0;html=1;whiteSpace=wrap;align=right;verticalAlign=bottom;" connectable="0" vertex="1" parent="7Q-p2mdLASTirpOHlqEr-18">
          <mxGeometry x="1" relative="1" as="geometry" />
        </mxCell>
        <mxCell id="7Q-p2mdLASTirpOHlqEr-21" value="" style="endArrow=classic;html=1;rounded=0;fontSize=12;startSize=8;endSize=8;curved=1;" edge="1" parent="1">
          <mxGeometry width="50" height="50" relative="1" as="geometry">
            <mxPoint x="42" y="75" as="sourcePoint" />
            <mxPoint x="246" y="76" as="targetPoint" />
          </mxGeometry>
        </mxCell>
        <mxCell id="7Q-p2mdLASTirpOHlqEr-22" value="add user data&amp;nbsp;" style="edgeLabel;html=1;align=center;verticalAlign=middle;resizable=0;points=[];fontSize=12;" connectable="0" vertex="1" parent="7Q-p2mdLASTirpOHlqEr-21">
          <mxGeometry x="-0.0544" y="1" relative="1" as="geometry">
            <mxPoint x="5" y="-4" as="offset" />
          </mxGeometry>
        </mxCell>
        <mxCell id="7Q-p2mdLASTirpOHlqEr-24" value="" style="endArrow=classic;html=1;rounded=0;fontSize=12;startSize=8;endSize=8;curved=1;exitX=0.5;exitY=0;exitDx=0;exitDy=0;dashed=1;dashPattern=8 8;" edge="1" parent="1">
          <mxGeometry width="50" height="50" relative="1" as="geometry">
            <mxPoint x="247.5" y="123" as="sourcePoint" />
            <mxPoint x="42" y="123" as="targetPoint" />
          </mxGeometry>
        </mxCell>
        <mxCell id="7Q-p2mdLASTirpOHlqEr-27" value="return new user data if no&lt;div&gt;existed username and email.&lt;/div&gt;&lt;div&gt;return fail if userdata has already&lt;/div&gt;&lt;div&gt;exist&lt;/div&gt;" style="edgeLabel;html=1;align=center;verticalAlign=middle;resizable=0;points=[];fontSize=12;" connectable="0" vertex="1" parent="7Q-p2mdLASTirpOHlqEr-24">
          <mxGeometry x="-0.1354" y="-5" relative="1" as="geometry">
            <mxPoint x="-8" y="12" as="offset" />
          </mxGeometry>
        </mxCell>
        <mxCell id="7Q-p2mdLASTirpOHlqEr-28" value="" style="rounded=0;whiteSpace=wrap;html=1;fillColor=#f0a30a;strokeColor=#BD7000;fontColor=#000000;" vertex="1" parent="1">
          <mxGeometry x="36" y="-25" width="46" height="72" as="geometry" />
        </mxCell>
        <mxCell id="7Q-p2mdLASTirpOHlqEr-31" value="" style="edgeStyle=elbowEdgeStyle;elbow=horizontal;endArrow=classic;html=1;curved=0;rounded=0;endSize=8;startSize=8;fontSize=12;entryX=1;entryY=0.75;entryDx=0;entryDy=0;" edge="1" parent="1" target="7Q-p2mdLASTirpOHlqEr-28">
          <mxGeometry width="50" height="50" relative="1" as="geometry">
            <mxPoint x="82" y="-10" as="sourcePoint" />
            <mxPoint x="190" y="-10" as="targetPoint" />
            <Array as="points">
              <mxPoint x="171" y="11" />
            </Array>
          </mxGeometry>
        </mxCell>
        <mxCell id="7Q-p2mdLASTirpOHlqEr-32" value="check format&lt;div&gt;validation&lt;/div&gt;" style="edgeLabel;html=1;align=center;verticalAlign=middle;resizable=0;points=[];fontSize=12;" connectable="0" vertex="1" parent="7Q-p2mdLASTirpOHlqEr-31">
          <mxGeometry x="-0.6331" y="2" relative="1" as="geometry">
            <mxPoint x="5" y="1" as="offset" />
          </mxGeometry>
        </mxCell>
        <mxCell id="7Q-p2mdLASTirpOHlqEr-33" value="" style="endArrow=classic;html=1;rounded=0;fontSize=12;startSize=8;endSize=8;curved=1;exitX=0.75;exitY=0;exitDx=0;exitDy=0;dashed=1;dashPattern=8 8;entryX=0.79;entryY=1.01;entryDx=0;entryDy=0;entryPerimeter=0;" edge="1" parent="1">
          <mxGeometry width="50" height="50" relative="1" as="geometry">
            <mxPoint x="3.5" y="103.875" as="sourcePoint" />
            <mxPoint x="-203.10000000000002" y="103.86999999999989" as="targetPoint" />
          </mxGeometry>
        </mxCell>
        <mxCell id="7Q-p2mdLASTirpOHlqEr-34" value="return success if format valid,&lt;div&gt;and return fail if format invalid&lt;/div&gt;" style="edgeLabel;html=1;align=center;verticalAlign=middle;resizable=0;points=[];fontSize=12;" connectable="0" vertex="1" parent="7Q-p2mdLASTirpOHlqEr-33">
          <mxGeometry x="-0.0576" y="3" relative="1" as="geometry">
            <mxPoint x="-2" y="-8" as="offset" />
          </mxGeometry>
        </mxCell>
        <mxCell id="7Q-p2mdLASTirpOHlqEr-35" value="" style="rounded=0;whiteSpace=wrap;html=1;fillColor=#f0a30a;strokeColor=#BD7000;fontColor=#000000;" vertex="1" parent="1">
          <mxGeometry x="-222" y="136" width="46" height="72" as="geometry" />
        </mxCell>
        <mxCell id="7Q-p2mdLASTirpOHlqEr-36" value="" style="edgeStyle=elbowEdgeStyle;elbow=horizontal;endArrow=classic;html=1;curved=0;rounded=0;endSize=8;startSize=8;fontSize=12;entryX=1;entryY=0.75;entryDx=0;entryDy=0;" edge="1" parent="1">
          <mxGeometry width="50" height="50" relative="1" as="geometry">
            <mxPoint x="-177" y="149" as="sourcePoint" />
            <mxPoint x="-177" y="188" as="targetPoint" />
            <Array as="points">
              <mxPoint x="-60" y="169" />
            </Array>
          </mxGeometry>
        </mxCell>
        <mxCell id="7Q-p2mdLASTirpOHlqEr-37" value="if failed, retry to type&lt;div&gt;the username, password,&lt;/div&gt;&lt;div&gt;or email&lt;/div&gt;" style="edgeLabel;html=1;align=center;verticalAlign=middle;resizable=0;points=[];fontSize=12;" connectable="0" vertex="1" parent="7Q-p2mdLASTirpOHlqEr-36">
          <mxGeometry x="-0.6331" y="2" relative="1" as="geometry">
            <mxPoint x="28" y="1" as="offset" />
          </mxGeometry>
        </mxCell>
        <mxCell id="7Q-p2mdLASTirpOHlqEr-39" value="" style="endArrow=classic;html=1;rounded=0;fontSize=12;startSize=8;endSize=8;curved=1;" edge="1" parent="1">
          <mxGeometry width="50" height="50" relative="1" as="geometry">
            <mxPoint x="-201" y="261.75" as="sourcePoint" />
            <mxPoint x="2" y="258" as="targetPoint" />
          </mxGeometry>
        </mxCell>
        <mxCell id="7Q-p2mdLASTirpOHlqEr-40" value="send login request with username&lt;div&gt;and password&amp;nbsp;&lt;/div&gt;" style="edgeLabel;html=1;align=center;verticalAlign=middle;resizable=0;points=[];fontSize=12;" connectable="0" vertex="1" parent="7Q-p2mdLASTirpOHlqEr-39">
          <mxGeometry x="-0.0544" y="1" relative="1" as="geometry">
            <mxPoint x="5" y="1" as="offset" />
          </mxGeometry>
        </mxCell>
        <mxCell id="7Q-p2mdLASTirpOHlqEr-50" value="" style="endArrow=classic;html=1;rounded=0;fontSize=12;startSize=8;endSize=8;curved=1;exitX=0.75;exitY=0;exitDx=0;exitDy=0;dashed=1;dashPattern=8 8;entryX=0.79;entryY=1.01;entryDx=0;entryDy=0;entryPerimeter=0;" edge="1" parent="1">
          <mxGeometry width="50" height="50" relative="1" as="geometry">
            <mxPoint x="2.5999999999999996" y="346.005" as="sourcePoint" />
            <mxPoint x="-204.00000000000003" y="345.9999999999999" as="targetPoint" />
          </mxGeometry>
        </mxCell>
        <mxCell id="7Q-p2mdLASTirpOHlqEr-51" value="if username and password match&lt;div&gt;and exist, respond with success;&lt;/div&gt;&lt;div&gt;otherwise,&lt;/div&gt;&lt;div&gt;response fail&lt;/div&gt;" style="edgeLabel;html=1;align=center;verticalAlign=middle;resizable=0;points=[];fontSize=12;" connectable="0" vertex="1" parent="7Q-p2mdLASTirpOHlqEr-50">
          <mxGeometry x="-0.0576" y="3" relative="1" as="geometry">
            <mxPoint x="-2" y="-8" as="offset" />
          </mxGeometry>
        </mxCell>
        <mxCell id="7Q-p2mdLASTirpOHlqEr-52" value="" style="rounded=0;whiteSpace=wrap;html=1;fillColor=#f0a30a;strokeColor=#BD7000;fontColor=#000000;" vertex="1" parent="1">
          <mxGeometry x="-214" y="392" width="46" height="72" as="geometry" />
        </mxCell>
        <mxCell id="7Q-p2mdLASTirpOHlqEr-53" value="" style="edgeStyle=elbowEdgeStyle;elbow=horizontal;endArrow=classic;html=1;curved=0;rounded=0;endSize=8;startSize=8;fontSize=12;entryX=1;entryY=0.75;entryDx=0;entryDy=0;" edge="1" parent="1">
          <mxGeometry width="50" height="50" relative="1" as="geometry">
            <mxPoint x="-167" y="409" as="sourcePoint" />
            <mxPoint x="-167" y="448" as="targetPoint" />
            <Array as="points">
              <mxPoint x="-30" y="435" />
            </Array>
          </mxGeometry>
        </mxCell>
        <mxCell id="7Q-p2mdLASTirpOHlqEr-54" value="if fail received,&lt;div&gt;prompt for login again&amp;nbsp;&lt;/div&gt;&lt;div&gt;or create a new account&lt;/div&gt;&lt;div&gt;first&lt;/div&gt;" style="edgeLabel;html=1;align=center;verticalAlign=middle;resizable=0;points=[];fontSize=12;" connectable="0" vertex="1" parent="7Q-p2mdLASTirpOHlqEr-53">
          <mxGeometry x="-0.6331" y="2" relative="1" as="geometry">
            <mxPoint x="17" y="1" as="offset" />
          </mxGeometry>
        </mxCell>
        <mxCell id="7Q-p2mdLASTirpOHlqEr-55" value="" style="endArrow=classic;html=1;rounded=0;fontSize=12;startSize=8;endSize=8;curved=1;" edge="1" parent="1">
          <mxGeometry width="50" height="50" relative="1" as="geometry">
            <mxPoint x="42" y="313" as="sourcePoint" />
            <mxPoint x="246" y="314" as="targetPoint" />
          </mxGeometry>
        </mxCell>
        <mxCell id="7Q-p2mdLASTirpOHlqEr-57" value="request user data of the username" style="edgeLabel;html=1;align=center;verticalAlign=middle;resizable=0;points=[];fontSize=12;" connectable="0" vertex="1" parent="7Q-p2mdLASTirpOHlqEr-55">
          <mxGeometry x="-0.0262" y="1" relative="1" as="geometry">
            <mxPoint x="1" as="offset" />
          </mxGeometry>
        </mxCell>
        <mxCell id="7Q-p2mdLASTirpOHlqEr-58" value="" style="endArrow=classic;html=1;rounded=0;fontSize=12;startSize=8;endSize=8;curved=1;exitX=0.5;exitY=0;exitDx=0;exitDy=0;dashed=1;dashPattern=8 8;" edge="1" parent="1">
          <mxGeometry width="50" height="50" relative="1" as="geometry">
            <mxPoint x="245.5" y="366" as="sourcePoint" />
            <mxPoint x="40" y="366" as="targetPoint" />
          </mxGeometry>
        </mxCell>
        <mxCell id="7Q-p2mdLASTirpOHlqEr-59" value="response with requested data&lt;div&gt;or NULL (0)&lt;/div&gt;" style="edgeLabel;html=1;align=center;verticalAlign=middle;resizable=0;points=[];fontSize=12;" connectable="0" vertex="1" parent="7Q-p2mdLASTirpOHlqEr-58">
          <mxGeometry x="-0.1354" y="-5" relative="1" as="geometry">
            <mxPoint x="-8" y="6" as="offset" />
          </mxGeometry>
        </mxCell>
        <mxCell id="7Q-p2mdLASTirpOHlqEr-60" value="" style="endArrow=none;html=1;rounded=0;dashed=1;dashPattern=1 2;fontSize=12;startSize=8;endSize=8;curved=1;" edge="1" parent="1">
          <mxGeometry relative="1" as="geometry">
            <mxPoint x="266.83000000000004" y="497" as="sourcePoint" />
            <mxPoint x="267" y="699" as="targetPoint" />
          </mxGeometry>
        </mxCell>
        <mxCell id="7Q-p2mdLASTirpOHlqEr-61" value="" style="resizable=0;html=1;whiteSpace=wrap;align=left;verticalAlign=bottom;" connectable="0" vertex="1" parent="7Q-p2mdLASTirpOHlqEr-60">
          <mxGeometry x="-1" relative="1" as="geometry" />
        </mxCell>
        <mxCell id="7Q-p2mdLASTirpOHlqEr-62" value="" style="resizable=0;html=1;whiteSpace=wrap;align=right;verticalAlign=bottom;" connectable="0" vertex="1" parent="7Q-p2mdLASTirpOHlqEr-60">
          <mxGeometry x="1" relative="1" as="geometry" />
        </mxCell>
        <mxCell id="7Q-p2mdLASTirpOHlqEr-63" value="" style="endArrow=none;html=1;rounded=0;dashed=1;dashPattern=1 2;fontSize=12;startSize=8;endSize=8;curved=1;" edge="1" parent="1">
          <mxGeometry relative="1" as="geometry">
            <mxPoint x="-221.17" y="618" as="sourcePoint" />
            <mxPoint x="-221" y="701" as="targetPoint" />
          </mxGeometry>
        </mxCell>
        <mxCell id="7Q-p2mdLASTirpOHlqEr-64" value="" style="resizable=0;html=1;whiteSpace=wrap;align=left;verticalAlign=bottom;" connectable="0" vertex="1" parent="7Q-p2mdLASTirpOHlqEr-63">
          <mxGeometry x="-1" relative="1" as="geometry" />
        </mxCell>
        <mxCell id="7Q-p2mdLASTirpOHlqEr-65" value="" style="resizable=0;html=1;whiteSpace=wrap;align=right;verticalAlign=bottom;" connectable="0" vertex="1" parent="7Q-p2mdLASTirpOHlqEr-63">
          <mxGeometry x="1" relative="1" as="geometry" />
        </mxCell>
        <mxCell id="7Q-p2mdLASTirpOHlqEr-66" value="User" style="shape=umlActor;verticalLabelPosition=bottom;verticalAlign=top;html=1;outlineConnect=0;" vertex="1" parent="1">
          <mxGeometry x="-432" y="-99" width="30" height="60" as="geometry" />
        </mxCell>
        <mxCell id="7Q-p2mdLASTirpOHlqEr-70" value="" style="endArrow=none;dashed=1;html=1;dashPattern=1 3;strokeWidth=2;rounded=0;fontSize=12;startSize=8;endSize=8;curved=1;" edge="1" parent="1">
          <mxGeometry width="50" height="50" relative="1" as="geometry">
            <mxPoint x="-417" y="556" as="sourcePoint" />
            <mxPoint x="-417.5" y="-20" as="targetPoint" />
          </mxGeometry>
        </mxCell>
        <mxCell id="7Q-p2mdLASTirpOHlqEr-71" value="" style="endArrow=classic;html=1;rounded=0;fontSize=12;startSize=8;endSize=8;curved=1;" edge="1" parent="1">
          <mxGeometry width="50" height="50" relative="1" as="geometry">
            <mxPoint x="-412" y="14" as="sourcePoint" />
            <mxPoint x="-246.56" y="14" as="targetPoint" />
          </mxGeometry>
        </mxCell>
        <mxCell id="7Q-p2mdLASTirpOHlqEr-72" value="&amp;lt;&amp;lt;stars app and register&amp;gt;&amp;gt;" style="edgeLabel;html=1;align=center;verticalAlign=middle;resizable=0;points=[];fontSize=12;" connectable="0" vertex="1" parent="7Q-p2mdLASTirpOHlqEr-71">
          <mxGeometry x="-0.0033" y="1" relative="1" as="geometry">
            <mxPoint as="offset" />
          </mxGeometry>
        </mxCell>
        <mxCell id="7Q-p2mdLASTirpOHlqEr-73" value="" style="endArrow=classic;html=1;rounded=0;fontSize=12;startSize=8;endSize=8;curved=1;" edge="1" parent="1">
          <mxGeometry width="50" height="50" relative="1" as="geometry">
            <mxPoint x="-411.56" y="263" as="sourcePoint" />
            <mxPoint x="-246.56" y="263" as="targetPoint" />
          </mxGeometry>
        </mxCell>
        <mxCell id="7Q-p2mdLASTirpOHlqEr-74" value="&amp;lt;&amp;lt;stars app and login&amp;gt;&amp;gt;" style="edgeLabel;html=1;align=center;verticalAlign=middle;resizable=0;points=[];fontSize=12;" connectable="0" vertex="1" parent="7Q-p2mdLASTirpOHlqEr-73">
          <mxGeometry x="-0.0033" y="1" relative="1" as="geometry">
            <mxPoint as="offset" />
          </mxGeometry>
        </mxCell>
      </root>
    </mxGraphModel>
  </diagram>
  <diagram id="msxOofYCOIQkA4dO4pOY" name="sequence of events when users create entries">
    <mxGraphModel grid="0" page="0" gridSize="10" guides="1" tooltips="1" connect="1" arrows="1" fold="1" pageScale="1" pageWidth="827" pageHeight="1169" math="0" shadow="0">
      <root>
        <mxCell id="0" />
        <mxCell id="1" parent="0" />
        <mxCell id="sf6JXfqoxBf-ygM8KGdl-1" value="User" style="shape=umlActor;verticalLabelPosition=bottom;verticalAlign=top;html=1;outlineConnect=0;" vertex="1" parent="1">
          <mxGeometry x="-347" y="-101" width="30" height="60" as="geometry" />
        </mxCell>
        <mxCell id="sf6JXfqoxBf-ygM8KGdl-2" value="" style="endArrow=none;dashed=1;html=1;dashPattern=1 3;strokeWidth=2;rounded=0;fontSize=12;startSize=8;endSize=8;curved=1;" edge="1" parent="1">
          <mxGeometry width="50" height="50" relative="1" as="geometry">
            <mxPoint x="-332" y="965" as="sourcePoint" />
            <mxPoint x="-332.5" y="-21" as="targetPoint" />
          </mxGeometry>
        </mxCell>
        <mxCell id="sf6JXfqoxBf-ygM8KGdl-3" value="" style="endArrow=classic;html=1;rounded=0;fontSize=12;startSize=8;endSize=8;curved=1;" edge="1" parent="1">
          <mxGeometry width="50" height="50" relative="1" as="geometry">
            <mxPoint x="-328" y="29" as="sourcePoint" />
            <mxPoint x="-162.56" y="29" as="targetPoint" />
          </mxGeometry>
        </mxCell>
        <mxCell id="sf6JXfqoxBf-ygM8KGdl-4" value="&amp;lt;&amp;lt;click on create a new&lt;div&gt;entries button&amp;gt;&amp;gt;&lt;/div&gt;" style="edgeLabel;html=1;align=center;verticalAlign=middle;resizable=0;points=[];fontSize=12;" connectable="0" vertex="1" parent="sf6JXfqoxBf-ygM8KGdl-3">
          <mxGeometry x="-0.0033" y="1" relative="1" as="geometry">
            <mxPoint as="offset" />
          </mxGeometry>
        </mxCell>
        <mxCell id="sf6JXfqoxBf-ygM8KGdl-5" value="Client" style="rounded=0;whiteSpace=wrap;html=1;fillColor=#dae8fc;strokeColor=#6C8EBF;" vertex="1" parent="1">
          <mxGeometry x="-185" y="-71" width="89" height="43" as="geometry" />
        </mxCell>
        <mxCell id="sf6JXfqoxBf-ygM8KGdl-6" value="" style="whiteSpace=wrap;html=1;align=center;rotation=-90;fillColor=#66B2FF;" vertex="1" parent="1">
          <mxGeometry x="-308.25" y="152.75" width="331.5" height="40" as="geometry" />
        </mxCell>
        <mxCell id="sf6JXfqoxBf-ygM8KGdl-10" value="" style="endArrow=classic;html=1;rounded=0;fontSize=12;startSize=8;endSize=8;curved=1;" edge="1" parent="1">
          <mxGeometry width="50" height="50" relative="1" as="geometry">
            <mxPoint x="-122" y="34" as="sourcePoint" />
            <mxPoint x="34" y="34" as="targetPoint" />
          </mxGeometry>
        </mxCell>
        <mxCell id="sf6JXfqoxBf-ygM8KGdl-11" value="create new product&amp;nbsp;&lt;div&gt;details&lt;/div&gt;" style="edgeLabel;html=1;align=center;verticalAlign=middle;resizable=0;points=[];fontSize=12;" connectable="0" vertex="1" parent="sf6JXfqoxBf-ygM8KGdl-10">
          <mxGeometry x="-0.0152" y="-2" relative="1" as="geometry">
            <mxPoint x="-3" y="-9" as="offset" />
          </mxGeometry>
        </mxCell>
        <mxCell id="U0nQERvUo0-BCQa0Vr5P-1" value="Server" style="rounded=0;whiteSpace=wrap;html=1;fillColor=#dae8fc;strokeColor=#6C8EBF;" vertex="1" parent="1">
          <mxGeometry x="11" y="-71" width="89" height="43" as="geometry" />
        </mxCell>
        <mxCell id="U0nQERvUo0-BCQa0Vr5P-2" value="" style="whiteSpace=wrap;html=1;align=center;rotation=-90;fillColor=#66B2FF;" vertex="1" parent="1">
          <mxGeometry x="-81.37" y="122.88" width="271.75" height="40" as="geometry" />
        </mxCell>
        <mxCell id="U0nQERvUo0-BCQa0Vr5P-3" value="" style="endArrow=none;html=1;rounded=0;dashed=1;dashPattern=1 2;" edge="1" parent="1">
          <mxGeometry relative="1" as="geometry">
            <mxPoint x="54.5" y="-26" as="sourcePoint" />
            <mxPoint x="54.5" y="9" as="targetPoint" />
          </mxGeometry>
        </mxCell>
        <mxCell id="U0nQERvUo0-BCQa0Vr5P-4" value="" style="resizable=0;html=1;whiteSpace=wrap;align=left;verticalAlign=bottom;" connectable="0" vertex="1" parent="U0nQERvUo0-BCQa0Vr5P-3">
          <mxGeometry x="-1" relative="1" as="geometry" />
        </mxCell>
        <mxCell id="U0nQERvUo0-BCQa0Vr5P-5" value="" style="resizable=0;html=1;whiteSpace=wrap;align=right;verticalAlign=bottom;" connectable="0" vertex="1" parent="U0nQERvUo0-BCQa0Vr5P-3">
          <mxGeometry x="1" relative="1" as="geometry" />
        </mxCell>
        <mxCell id="U0nQERvUo0-BCQa0Vr5P-6" value="" style="endArrow=classic;html=1;rounded=0;fontSize=12;startSize=8;endSize=8;curved=1;dashed=1;dashPattern=8 8;" edge="1" parent="1">
          <mxGeometry width="50" height="50" relative="1" as="geometry">
            <mxPoint x="35" y="182" as="sourcePoint" />
            <mxPoint x="-124" y="182" as="targetPoint" />
          </mxGeometry>
        </mxCell>
        <mxCell id="U0nQERvUo0-BCQa0Vr5P-8" value="response with success&lt;div&gt;if the product is valid (not&amp;nbsp;&lt;/div&gt;&lt;div&gt;repeated or sensitive words);&lt;/div&gt;&lt;div&gt;otherwise, response with fail&lt;/div&gt;" style="edgeLabel;html=1;align=center;verticalAlign=middle;resizable=0;points=[];" connectable="0" vertex="1" parent="U0nQERvUo0-BCQa0Vr5P-6">
          <mxGeometry x="-0.065" relative="1" as="geometry">
            <mxPoint x="-1" y="-7" as="offset" />
          </mxGeometry>
        </mxCell>
        <mxCell id="U0nQERvUo0-BCQa0Vr5P-9" value="Database" style="rounded=0;whiteSpace=wrap;html=1;fillColor=#dae8fc;strokeColor=#6C8EBF;" vertex="1" parent="1">
          <mxGeometry x="212" y="-71" width="89" height="43" as="geometry" />
        </mxCell>
        <mxCell id="U0nQERvUo0-BCQa0Vr5P-10" value="" style="whiteSpace=wrap;html=1;align=center;rotation=-90;fillColor=#66B2FF;" vertex="1" parent="1">
          <mxGeometry x="125.75" y="115.75" width="257.5" height="40" as="geometry" />
        </mxCell>
        <mxCell id="U0nQERvUo0-BCQa0Vr5P-11" value="" style="endArrow=none;html=1;rounded=0;dashed=1;dashPattern=1 2;fontSize=12;startSize=8;endSize=8;curved=1;" edge="1" parent="1">
          <mxGeometry relative="1" as="geometry">
            <mxPoint x="255.5" y="-27" as="sourcePoint" />
            <mxPoint x="255.5" y="8" as="targetPoint" />
          </mxGeometry>
        </mxCell>
        <mxCell id="U0nQERvUo0-BCQa0Vr5P-12" value="" style="resizable=0;html=1;whiteSpace=wrap;align=left;verticalAlign=bottom;" connectable="0" vertex="1" parent="U0nQERvUo0-BCQa0Vr5P-11">
          <mxGeometry x="-1" relative="1" as="geometry" />
        </mxCell>
        <mxCell id="U0nQERvUo0-BCQa0Vr5P-13" value="" style="resizable=0;html=1;whiteSpace=wrap;align=right;verticalAlign=bottom;" connectable="0" vertex="1" parent="U0nQERvUo0-BCQa0Vr5P-11">
          <mxGeometry x="1" relative="1" as="geometry" />
        </mxCell>
        <mxCell id="U0nQERvUo0-BCQa0Vr5P-14" value="" style="endArrow=classic;html=1;rounded=0;fontSize=12;startSize=8;endSize=8;curved=1;entryX=0.553;entryY=0.013;entryDx=0;entryDy=0;entryPerimeter=0;" edge="1" parent="1" target="U0nQERvUo0-BCQa0Vr5P-10">
          <mxGeometry width="50" height="50" relative="1" as="geometry">
            <mxPoint x="76" y="122" as="sourcePoint" />
            <mxPoint x="224" y="122" as="targetPoint" />
          </mxGeometry>
        </mxCell>
        <mxCell id="U0nQERvUo0-BCQa0Vr5P-15" value="request new&amp;nbsp;&lt;div&gt;product entries&lt;/div&gt;" style="edgeLabel;html=1;align=center;verticalAlign=middle;resizable=0;points=[];fontSize=12;" connectable="0" vertex="1" parent="U0nQERvUo0-BCQa0Vr5P-14">
          <mxGeometry x="-0.0152" y="-2" relative="1" as="geometry">
            <mxPoint x="-3" y="-1" as="offset" />
          </mxGeometry>
        </mxCell>
        <mxCell id="U0nQERvUo0-BCQa0Vr5P-16" value="" style="rounded=0;whiteSpace=wrap;html=1;fillColor=#f0a30a;strokeColor=#BD7000;fontColor=#000000;" vertex="1" parent="1">
          <mxGeometry x="67" y="9" width="46" height="72" as="geometry" />
        </mxCell>
        <mxCell id="U0nQERvUo0-BCQa0Vr5P-18" value="" style="edgeStyle=elbowEdgeStyle;elbow=horizontal;endArrow=classic;html=1;curved=0;rounded=0;endSize=8;startSize=8;fontSize=12;entryX=1;entryY=0.75;entryDx=0;entryDy=0;" edge="1" parent="1">
          <mxGeometry width="50" height="50" relative="1" as="geometry">
            <mxPoint x="113" y="24" as="sourcePoint" />
            <mxPoint x="113" y="63" as="targetPoint" />
            <Array as="points">
              <mxPoint x="215" y="45" />
            </Array>
          </mxGeometry>
        </mxCell>
        <mxCell id="U0nQERvUo0-BCQa0Vr5P-19" value="check&amp;nbsp;&lt;div&gt;validation&amp;nbsp;&lt;/div&gt;&lt;div&gt;(sensitive&lt;/div&gt;&lt;div&gt;words)&lt;/div&gt;" style="edgeLabel;html=1;align=center;verticalAlign=middle;resizable=0;points=[];fontSize=12;" connectable="0" vertex="1" parent="U0nQERvUo0-BCQa0Vr5P-18">
          <mxGeometry x="-0.6331" y="2" relative="1" as="geometry">
            <mxPoint x="8" y="12" as="offset" />
          </mxGeometry>
        </mxCell>
        <mxCell id="U0nQERvUo0-BCQa0Vr5P-20" value="" style="rounded=0;whiteSpace=wrap;html=1;fillColor=#f0a30a;strokeColor=#BD7000;fontColor=#000000;" vertex="1" parent="1">
          <mxGeometry x="-137" y="232" width="46" height="72" as="geometry" />
        </mxCell>
        <mxCell id="U0nQERvUo0-BCQa0Vr5P-21" value="" style="edgeStyle=elbowEdgeStyle;elbow=horizontal;endArrow=classic;html=1;curved=0;rounded=0;endSize=8;startSize=8;fontSize=12;entryX=1;entryY=0.75;entryDx=0;entryDy=0;" edge="1" parent="1">
          <mxGeometry width="50" height="50" relative="1" as="geometry">
            <mxPoint x="-91" y="247" as="sourcePoint" />
            <mxPoint x="-91" y="286" as="targetPoint" />
            <Array as="points">
              <mxPoint x="11" y="268" />
            </Array>
          </mxGeometry>
        </mxCell>
        <mxCell id="U0nQERvUo0-BCQa0Vr5P-22" value="if failed, prompt&amp;nbsp;&lt;div&gt;for editing again&amp;nbsp;&lt;/div&gt;" style="edgeLabel;html=1;align=center;verticalAlign=middle;resizable=0;points=[];fontSize=12;" connectable="0" vertex="1" parent="U0nQERvUo0-BCQa0Vr5P-21">
          <mxGeometry x="-0.6331" y="2" relative="1" as="geometry">
            <mxPoint x="9" y="9" as="offset" />
          </mxGeometry>
        </mxCell>
        <mxCell id="U0nQERvUo0-BCQa0Vr5P-23" value="" style="endArrow=classic;html=1;rounded=0;fontSize=12;startSize=8;endSize=8;curved=1;dashed=1;dashPattern=8 8;" edge="1" parent="1">
          <mxGeometry width="50" height="50" relative="1" as="geometry">
            <mxPoint x="233" y="186" as="sourcePoint" />
            <mxPoint x="74" y="186" as="targetPoint" />
          </mxGeometry>
        </mxCell>
        <mxCell id="U0nQERvUo0-BCQa0Vr5P-24" value="response with new&lt;div&gt;product details. If repeated,&lt;/div&gt;&lt;div&gt;return fail&lt;/div&gt;" style="edgeLabel;html=1;align=center;verticalAlign=middle;resizable=0;points=[];" connectable="0" vertex="1" parent="U0nQERvUo0-BCQa0Vr5P-23">
          <mxGeometry x="-0.065" relative="1" as="geometry">
            <mxPoint x="-1" y="-7" as="offset" />
          </mxGeometry>
        </mxCell>
        <mxCell id="U0nQERvUo0-BCQa0Vr5P-25" value="" style="endArrow=classic;html=1;rounded=0;fontSize=12;startSize=8;endSize=8;curved=1;entryX=0.576;entryY=0.071;entryDx=0;entryDy=0;entryPerimeter=0;" edge="1" parent="1">
          <mxGeometry width="50" height="50" relative="1" as="geometry">
            <mxPoint x="-330" y="396" as="sourcePoint" />
            <mxPoint x="-159.65999999999985" y="395.72" as="targetPoint" />
          </mxGeometry>
        </mxCell>
        <mxCell id="U0nQERvUo0-BCQa0Vr5P-26" value="&amp;lt;&amp;lt;click edit button&amp;gt;&amp;gt;" style="edgeLabel;html=1;align=center;verticalAlign=middle;resizable=0;points=[];fontSize=12;" connectable="0" vertex="1" parent="U0nQERvUo0-BCQa0Vr5P-25">
          <mxGeometry x="-0.0033" y="1" relative="1" as="geometry">
            <mxPoint as="offset" />
          </mxGeometry>
        </mxCell>
        <mxCell id="U0nQERvUo0-BCQa0Vr5P-29" value="" style="whiteSpace=wrap;html=1;align=center;rotation=-90;fillColor=#66B2FF;" vertex="1" parent="1">
          <mxGeometry x="-336" y="545.5" width="387" height="40" as="geometry" />
        </mxCell>
        <mxCell id="U0nQERvUo0-BCQa0Vr5P-30" value="" style="endArrow=none;html=1;rounded=0;dashed=1;dashPattern=1 2;" edge="1" parent="1">
          <mxGeometry relative="1" as="geometry">
            <mxPoint x="-141.5" y="338" as="sourcePoint" />
            <mxPoint x="-141.5" y="373" as="targetPoint" />
          </mxGeometry>
        </mxCell>
        <mxCell id="U0nQERvUo0-BCQa0Vr5P-31" value="" style="resizable=0;html=1;whiteSpace=wrap;align=left;verticalAlign=bottom;" connectable="0" vertex="1" parent="U0nQERvUo0-BCQa0Vr5P-30">
          <mxGeometry x="-1" relative="1" as="geometry" />
        </mxCell>
        <mxCell id="U0nQERvUo0-BCQa0Vr5P-32" value="" style="resizable=0;html=1;whiteSpace=wrap;align=right;verticalAlign=bottom;" connectable="0" vertex="1" parent="U0nQERvUo0-BCQa0Vr5P-30">
          <mxGeometry x="1" relative="1" as="geometry" />
        </mxCell>
        <mxCell id="U0nQERvUo0-BCQa0Vr5P-33" value="" style="whiteSpace=wrap;html=1;align=center;rotation=-90;fillColor=#66B2FF;" vertex="1" parent="1">
          <mxGeometry x="-91.5" y="496" width="288" height="40" as="geometry" />
        </mxCell>
        <mxCell id="U0nQERvUo0-BCQa0Vr5P-34" value="" style="endArrow=none;html=1;rounded=0;dashed=1;dashPattern=1 2;entryX=1;entryY=0.5;entryDx=0;entryDy=0;" edge="1" parent="1" target="U0nQERvUo0-BCQa0Vr5P-33">
          <mxGeometry relative="1" as="geometry">
            <mxPoint x="52.5" y="280" as="sourcePoint" />
            <mxPoint x="52.5" y="315" as="targetPoint" />
          </mxGeometry>
        </mxCell>
        <mxCell id="U0nQERvUo0-BCQa0Vr5P-35" value="" style="resizable=0;html=1;whiteSpace=wrap;align=left;verticalAlign=bottom;" connectable="0" vertex="1" parent="U0nQERvUo0-BCQa0Vr5P-34">
          <mxGeometry x="-1" relative="1" as="geometry" />
        </mxCell>
        <mxCell id="U0nQERvUo0-BCQa0Vr5P-36" value="" style="resizable=0;html=1;whiteSpace=wrap;align=right;verticalAlign=bottom;" connectable="0" vertex="1" parent="U0nQERvUo0-BCQa0Vr5P-34">
          <mxGeometry x="1" relative="1" as="geometry" />
        </mxCell>
        <mxCell id="U0nQERvUo0-BCQa0Vr5P-37" value="" style="endArrow=none;html=1;rounded=0;dashed=1;dashPattern=1 2;" edge="1" parent="1">
          <mxGeometry relative="1" as="geometry">
            <mxPoint x="253.83" y="266" as="sourcePoint" />
            <mxPoint x="254" y="379" as="targetPoint" />
          </mxGeometry>
        </mxCell>
        <mxCell id="U0nQERvUo0-BCQa0Vr5P-38" value="" style="resizable=0;html=1;whiteSpace=wrap;align=left;verticalAlign=bottom;" connectable="0" vertex="1" parent="U0nQERvUo0-BCQa0Vr5P-37">
          <mxGeometry x="-1" relative="1" as="geometry" />
        </mxCell>
        <mxCell id="U0nQERvUo0-BCQa0Vr5P-39" value="" style="resizable=0;html=1;whiteSpace=wrap;align=right;verticalAlign=bottom;" connectable="0" vertex="1" parent="U0nQERvUo0-BCQa0Vr5P-37">
          <mxGeometry x="1" relative="1" as="geometry" />
        </mxCell>
        <mxCell id="U0nQERvUo0-BCQa0Vr5P-40" value="" style="whiteSpace=wrap;html=1;align=center;rotation=-90;fillColor=#66B2FF;" vertex="1" parent="1">
          <mxGeometry x="113" y="496" width="283" height="40" as="geometry" />
        </mxCell>
        <mxCell id="U0nQERvUo0-BCQa0Vr5P-41" value="" style="endArrow=classic;html=1;rounded=0;fontSize=12;startSize=8;endSize=8;curved=1;" edge="1" parent="1">
          <mxGeometry width="50" height="50" relative="1" as="geometry">
            <mxPoint x="-123" y="404" as="sourcePoint" />
            <mxPoint x="33" y="404" as="targetPoint" />
          </mxGeometry>
        </mxCell>
        <mxCell id="U0nQERvUo0-BCQa0Vr5P-42" value="update or add product&lt;div&gt;details&lt;/div&gt;" style="edgeLabel;html=1;align=center;verticalAlign=middle;resizable=0;points=[];fontSize=12;" connectable="0" vertex="1" parent="U0nQERvUo0-BCQa0Vr5P-41">
          <mxGeometry x="-0.0152" y="-2" relative="1" as="geometry">
            <mxPoint x="-3" y="-9" as="offset" />
          </mxGeometry>
        </mxCell>
        <mxCell id="U0nQERvUo0-BCQa0Vr5P-43" value="" style="rounded=0;whiteSpace=wrap;html=1;fillColor=#f0a30a;strokeColor=#BD7000;fontColor=#000000;" vertex="1" parent="1">
          <mxGeometry x="62" y="377" width="46" height="72" as="geometry" />
        </mxCell>
        <mxCell id="U0nQERvUo0-BCQa0Vr5P-44" value="" style="edgeStyle=elbowEdgeStyle;elbow=horizontal;endArrow=classic;html=1;curved=0;rounded=0;endSize=8;startSize=8;fontSize=12;entryX=1;entryY=0.75;entryDx=0;entryDy=0;" edge="1" parent="1">
          <mxGeometry width="50" height="50" relative="1" as="geometry">
            <mxPoint x="108" y="392" as="sourcePoint" />
            <mxPoint x="108" y="431" as="targetPoint" />
            <Array as="points">
              <mxPoint x="210" y="413" />
            </Array>
          </mxGeometry>
        </mxCell>
        <mxCell id="U0nQERvUo0-BCQa0Vr5P-45" value="check&amp;nbsp;&lt;div&gt;validation&amp;nbsp;&lt;/div&gt;&lt;div&gt;(sensitive&lt;/div&gt;&lt;div&gt;words)&lt;/div&gt;" style="edgeLabel;html=1;align=center;verticalAlign=middle;resizable=0;points=[];fontSize=12;" connectable="0" vertex="1" parent="U0nQERvUo0-BCQa0Vr5P-44">
          <mxGeometry x="-0.6331" y="2" relative="1" as="geometry">
            <mxPoint x="8" y="12" as="offset" />
          </mxGeometry>
        </mxCell>
        <mxCell id="U0nQERvUo0-BCQa0Vr5P-46" value="" style="endArrow=classic;html=1;rounded=0;fontSize=12;startSize=8;endSize=8;curved=1;entryX=0.553;entryY=0.013;entryDx=0;entryDy=0;entryPerimeter=0;" edge="1" parent="1">
          <mxGeometry width="50" height="50" relative="1" as="geometry">
            <mxPoint x="75" y="532" as="sourcePoint" />
            <mxPoint x="234" y="532" as="targetPoint" />
          </mxGeometry>
        </mxCell>
        <mxCell id="U0nQERvUo0-BCQa0Vr5P-47" value="request with updated&amp;nbsp;&lt;div&gt;product details&lt;/div&gt;" style="edgeLabel;html=1;align=center;verticalAlign=middle;resizable=0;points=[];fontSize=12;" connectable="0" vertex="1" parent="U0nQERvUo0-BCQa0Vr5P-46">
          <mxGeometry x="-0.0152" y="-2" relative="1" as="geometry">
            <mxPoint x="-3" y="-1" as="offset" />
          </mxGeometry>
        </mxCell>
        <mxCell id="U0nQERvUo0-BCQa0Vr5P-48" value="" style="endArrow=classic;html=1;rounded=0;fontSize=12;startSize=8;endSize=8;curved=1;dashed=1;dashPattern=8 8;" edge="1" parent="1">
          <mxGeometry width="50" height="50" relative="1" as="geometry">
            <mxPoint x="232" y="595" as="sourcePoint" />
            <mxPoint x="73" y="595" as="targetPoint" />
          </mxGeometry>
        </mxCell>
        <mxCell id="U0nQERvUo0-BCQa0Vr5P-49" value="response with updated&lt;div&gt;information if no repeated,&lt;/div&gt;&lt;div&gt;else return fail&lt;/div&gt;" style="edgeLabel;html=1;align=center;verticalAlign=middle;resizable=0;points=[];" connectable="0" vertex="1" parent="U0nQERvUo0-BCQa0Vr5P-48">
          <mxGeometry x="-0.065" relative="1" as="geometry">
            <mxPoint x="-1" y="-7" as="offset" />
          </mxGeometry>
        </mxCell>
        <mxCell id="U0nQERvUo0-BCQa0Vr5P-50" value="" style="endArrow=classic;html=1;rounded=0;fontSize=12;startSize=8;endSize=8;curved=1;dashed=1;dashPattern=8 8;" edge="1" parent="1">
          <mxGeometry width="50" height="50" relative="1" as="geometry">
            <mxPoint x="34" y="596" as="sourcePoint" />
            <mxPoint x="-125" y="596" as="targetPoint" />
          </mxGeometry>
        </mxCell>
        <mxCell id="U0nQERvUo0-BCQa0Vr5P-51" value="response with success&lt;div&gt;if the product is valid (not&amp;nbsp;&lt;/div&gt;&lt;div&gt;repeated or sensitive words);&lt;/div&gt;&lt;div&gt;otherwise, response with fail&lt;/div&gt;" style="edgeLabel;html=1;align=center;verticalAlign=middle;resizable=0;points=[];" connectable="0" vertex="1" parent="U0nQERvUo0-BCQa0Vr5P-50">
          <mxGeometry x="-0.065" relative="1" as="geometry">
            <mxPoint x="-1" y="-8" as="offset" />
          </mxGeometry>
        </mxCell>
        <mxCell id="U0nQERvUo0-BCQa0Vr5P-52" value="" style="rounded=0;whiteSpace=wrap;html=1;fillColor=#f0a30a;strokeColor=#BD7000;fontColor=#000000;" vertex="1" parent="1">
          <mxGeometry x="-132" y="663" width="46" height="72" as="geometry" />
        </mxCell>
        <mxCell id="U0nQERvUo0-BCQa0Vr5P-53" value="" style="edgeStyle=elbowEdgeStyle;elbow=horizontal;endArrow=classic;html=1;curved=0;rounded=0;endSize=8;startSize=8;fontSize=12;entryX=1;entryY=0.75;entryDx=0;entryDy=0;" edge="1" parent="1">
          <mxGeometry width="50" height="50" relative="1" as="geometry">
            <mxPoint x="-86" y="678" as="sourcePoint" />
            <mxPoint x="-86" y="717" as="targetPoint" />
            <Array as="points">
              <mxPoint x="16" y="699" />
            </Array>
          </mxGeometry>
        </mxCell>
        <mxCell id="U0nQERvUo0-BCQa0Vr5P-54" value="if failed, prompt&lt;div&gt;for editing again&lt;/div&gt;" style="edgeLabel;html=1;align=center;verticalAlign=middle;resizable=0;points=[];fontSize=12;" connectable="0" vertex="1" parent="U0nQERvUo0-BCQa0Vr5P-53">
          <mxGeometry x="-0.6331" y="2" relative="1" as="geometry">
            <mxPoint x="8" y="12" as="offset" />
          </mxGeometry>
        </mxCell>
        <mxCell id="U0nQERvUo0-BCQa0Vr5P-58" value="" style="endArrow=none;html=1;rounded=0;dashed=1;dashPattern=1 2;entryX=1;entryY=0.5;entryDx=0;entryDy=0;" edge="1" parent="1" target="U0nQERvUo0-BCQa0Vr5P-72">
          <mxGeometry relative="1" as="geometry">
            <mxPoint x="51.84" y="659" as="sourcePoint" />
            <mxPoint x="52" y="767" as="targetPoint" />
          </mxGeometry>
        </mxCell>
        <mxCell id="U0nQERvUo0-BCQa0Vr5P-59" value="" style="resizable=0;html=1;whiteSpace=wrap;align=left;verticalAlign=bottom;" connectable="0" vertex="1" parent="U0nQERvUo0-BCQa0Vr5P-58">
          <mxGeometry x="-1" relative="1" as="geometry" />
        </mxCell>
        <mxCell id="U0nQERvUo0-BCQa0Vr5P-60" value="" style="resizable=0;html=1;whiteSpace=wrap;align=right;verticalAlign=bottom;" connectable="0" vertex="1" parent="U0nQERvUo0-BCQa0Vr5P-58">
          <mxGeometry x="1" relative="1" as="geometry" />
        </mxCell>
        <mxCell id="U0nQERvUo0-BCQa0Vr5P-61" value="" style="endArrow=none;html=1;rounded=0;dashed=1;dashPattern=1 2;entryX=0.939;entryY=0.612;entryDx=0;entryDy=0;entryPerimeter=0;" edge="1" parent="1" target="U0nQERvUo0-BCQa0Vr5P-77">
          <mxGeometry relative="1" as="geometry">
            <mxPoint x="255.83" y="657" as="sourcePoint" />
            <mxPoint x="255.99" y="765" as="targetPoint" />
          </mxGeometry>
        </mxCell>
        <mxCell id="U0nQERvUo0-BCQa0Vr5P-62" value="" style="resizable=0;html=1;whiteSpace=wrap;align=left;verticalAlign=bottom;" connectable="0" vertex="1" parent="U0nQERvUo0-BCQa0Vr5P-61">
          <mxGeometry x="-1" relative="1" as="geometry" />
        </mxCell>
        <mxCell id="U0nQERvUo0-BCQa0Vr5P-63" value="" style="resizable=0;html=1;whiteSpace=wrap;align=right;verticalAlign=bottom;" connectable="0" vertex="1" parent="U0nQERvUo0-BCQa0Vr5P-61">
          <mxGeometry x="1" relative="1" as="geometry" />
        </mxCell>
        <mxCell id="U0nQERvUo0-BCQa0Vr5P-64" value="" style="endArrow=classic;html=1;rounded=0;fontSize=12;startSize=8;endSize=8;curved=1;entryX=0.576;entryY=0.071;entryDx=0;entryDy=0;entryPerimeter=0;" edge="1" parent="1">
          <mxGeometry width="50" height="50" relative="1" as="geometry">
            <mxPoint x="-333" y="823.28" as="sourcePoint" />
            <mxPoint x="-162.65999999999985" y="823" as="targetPoint" />
          </mxGeometry>
        </mxCell>
        <mxCell id="U0nQERvUo0-BCQa0Vr5P-65" value="&amp;lt;&amp;lt;click delete button&amp;gt;&amp;gt;" style="edgeLabel;html=1;align=center;verticalAlign=middle;resizable=0;points=[];fontSize=12;" connectable="0" vertex="1" parent="U0nQERvUo0-BCQa0Vr5P-64">
          <mxGeometry x="-0.0033" y="1" relative="1" as="geometry">
            <mxPoint as="offset" />
          </mxGeometry>
        </mxCell>
        <mxCell id="U0nQERvUo0-BCQa0Vr5P-66" value="" style="whiteSpace=wrap;html=1;align=center;rotation=-90;fillColor=#66B2FF;" vertex="1" parent="1">
          <mxGeometry x="-220" y="853.5" width="155" height="40" as="geometry" />
        </mxCell>
        <mxCell id="U0nQERvUo0-BCQa0Vr5P-67" value="" style="endArrow=none;html=1;rounded=0;dashed=1;dashPattern=1 2;" edge="1" parent="1">
          <mxGeometry relative="1" as="geometry">
            <mxPoint x="-141.5" y="762" as="sourcePoint" />
            <mxPoint x="-141.5" y="797" as="targetPoint" />
          </mxGeometry>
        </mxCell>
        <mxCell id="U0nQERvUo0-BCQa0Vr5P-68" value="" style="resizable=0;html=1;whiteSpace=wrap;align=left;verticalAlign=bottom;" connectable="0" vertex="1" parent="U0nQERvUo0-BCQa0Vr5P-67">
          <mxGeometry x="-1" relative="1" as="geometry" />
        </mxCell>
        <mxCell id="U0nQERvUo0-BCQa0Vr5P-69" value="" style="resizable=0;html=1;whiteSpace=wrap;align=right;verticalAlign=bottom;" connectable="0" vertex="1" parent="U0nQERvUo0-BCQa0Vr5P-67">
          <mxGeometry x="1" relative="1" as="geometry" />
        </mxCell>
        <mxCell id="U0nQERvUo0-BCQa0Vr5P-70" value="" style="endArrow=classic;html=1;rounded=0;fontSize=12;startSize=8;endSize=8;curved=1;" edge="1" parent="1">
          <mxGeometry width="50" height="50" relative="1" as="geometry">
            <mxPoint x="-122" y="823" as="sourcePoint" />
            <mxPoint x="34" y="823" as="targetPoint" />
          </mxGeometry>
        </mxCell>
        <mxCell id="U0nQERvUo0-BCQa0Vr5P-71" value="request delete the product&lt;div&gt;entry&lt;/div&gt;" style="edgeLabel;html=1;align=center;verticalAlign=middle;resizable=0;points=[];fontSize=12;" connectable="0" vertex="1" parent="U0nQERvUo0-BCQa0Vr5P-70">
          <mxGeometry x="-0.0152" y="-2" relative="1" as="geometry">
            <mxPoint x="-3" y="-9" as="offset" />
          </mxGeometry>
        </mxCell>
        <mxCell id="U0nQERvUo0-BCQa0Vr5P-72" value="" style="whiteSpace=wrap;html=1;align=center;rotation=-90;fillColor=#66B2FF;" vertex="1" parent="1">
          <mxGeometry x="-25" y="853.5" width="155" height="40" as="geometry" />
        </mxCell>
        <mxCell id="U0nQERvUo0-BCQa0Vr5P-73" value="" style="endArrow=classic;html=1;rounded=0;fontSize=12;startSize=8;endSize=8;curved=1;dashed=1;dashPattern=8 8;" edge="1" parent="1">
          <mxGeometry width="50" height="50" relative="1" as="geometry">
            <mxPoint x="36" y="903" as="sourcePoint" />
            <mxPoint x="-123" y="903" as="targetPoint" />
          </mxGeometry>
        </mxCell>
        <mxCell id="U0nQERvUo0-BCQa0Vr5P-74" value="response with delete&amp;nbsp;&lt;div&gt;successfully&lt;/div&gt;" style="edgeLabel;html=1;align=center;verticalAlign=middle;resizable=0;points=[];" connectable="0" vertex="1" parent="U0nQERvUo0-BCQa0Vr5P-73">
          <mxGeometry x="-0.065" relative="1" as="geometry">
            <mxPoint x="-1" y="-8" as="offset" />
          </mxGeometry>
        </mxCell>
        <mxCell id="U0nQERvUo0-BCQa0Vr5P-75" value="" style="endArrow=classic;html=1;rounded=0;fontSize=12;startSize=8;endSize=8;curved=1;entryX=0.553;entryY=0.013;entryDx=0;entryDy=0;entryPerimeter=0;" edge="1" parent="1">
          <mxGeometry width="50" height="50" relative="1" as="geometry">
            <mxPoint x="73" y="824" as="sourcePoint" />
            <mxPoint x="232" y="824" as="targetPoint" />
          </mxGeometry>
        </mxCell>
        <mxCell id="U0nQERvUo0-BCQa0Vr5P-76" value="request to delete the&lt;div&gt;product&amp;nbsp;&lt;/div&gt;" style="edgeLabel;html=1;align=center;verticalAlign=middle;resizable=0;points=[];fontSize=12;" connectable="0" vertex="1" parent="U0nQERvUo0-BCQa0Vr5P-75">
          <mxGeometry x="-0.0152" y="-2" relative="1" as="geometry">
            <mxPoint x="-3" y="-1" as="offset" />
          </mxGeometry>
        </mxCell>
        <mxCell id="U0nQERvUo0-BCQa0Vr5P-77" value="" style="whiteSpace=wrap;html=1;align=center;rotation=-90;fillColor=#66B2FF;" vertex="1" parent="1">
          <mxGeometry x="174" y="850" width="155" height="40" as="geometry" />
        </mxCell>
        <mxCell id="U0nQERvUo0-BCQa0Vr5P-78" value="" style="endArrow=classic;html=1;rounded=0;fontSize=12;startSize=8;endSize=8;curved=1;dashed=1;dashPattern=8 8;" edge="1" parent="1">
          <mxGeometry width="50" height="50" relative="1" as="geometry">
            <mxPoint x="232" y="902" as="sourcePoint" />
            <mxPoint x="73" y="902" as="targetPoint" />
          </mxGeometry>
        </mxCell>
        <mxCell id="U0nQERvUo0-BCQa0Vr5P-79" value="response with delete&amp;nbsp;&lt;div&gt;successfully&lt;/div&gt;" style="edgeLabel;html=1;align=center;verticalAlign=middle;resizable=0;points=[];" connectable="0" vertex="1" parent="U0nQERvUo0-BCQa0Vr5P-78">
          <mxGeometry x="-0.065" relative="1" as="geometry">
            <mxPoint x="-1" y="-8" as="offset" />
          </mxGeometry>
        </mxCell>
        <mxCell id="iOMQ0HB00MDP2bpXXoE0-1" value="" style="endArrow=none;html=1;rounded=0;dashed=1;dashPattern=1 2;" edge="1" parent="1">
          <mxGeometry relative="1" as="geometry">
            <mxPoint x="-141.5" y="-27" as="sourcePoint" />
            <mxPoint x="-141.5" y="8" as="targetPoint" />
          </mxGeometry>
        </mxCell>
        <mxCell id="iOMQ0HB00MDP2bpXXoE0-2" value="" style="resizable=0;html=1;whiteSpace=wrap;align=left;verticalAlign=bottom;" connectable="0" vertex="1" parent="iOMQ0HB00MDP2bpXXoE0-1">
          <mxGeometry x="-1" relative="1" as="geometry" />
        </mxCell>
        <mxCell id="iOMQ0HB00MDP2bpXXoE0-3" value="" style="resizable=0;html=1;whiteSpace=wrap;align=right;verticalAlign=bottom;" connectable="0" vertex="1" parent="iOMQ0HB00MDP2bpXXoE0-1">
          <mxGeometry x="1" relative="1" as="geometry" />
        </mxCell>
      </root>
    </mxGraphModel>
  </diagram>
  <diagram name="sequence of search bar" id="MMJcdDrEebWQdzx6jEbs">
    <mxGraphModel grid="0" page="0" gridSize="10" guides="1" tooltips="1" connect="1" arrows="1" fold="1" pageScale="1" pageWidth="827" pageHeight="1169" math="0" shadow="0">
      <root>
        <mxCell id="5nxavjmpJvt-txKDEjvU-0" />
        <mxCell id="5nxavjmpJvt-txKDEjvU-1" parent="5nxavjmpJvt-txKDEjvU-0" />
        <mxCell id="5nxavjmpJvt-txKDEjvU-2" value="User" style="shape=umlActor;verticalLabelPosition=bottom;verticalAlign=top;html=1;outlineConnect=0;" parent="5nxavjmpJvt-txKDEjvU-1" vertex="1">
          <mxGeometry x="-347" y="-101" width="30" height="60" as="geometry" />
        </mxCell>
        <mxCell id="5nxavjmpJvt-txKDEjvU-3" value="" style="endArrow=none;dashed=1;html=1;dashPattern=1 3;strokeWidth=2;rounded=0;fontSize=12;startSize=8;endSize=8;curved=1;" parent="5nxavjmpJvt-txKDEjvU-1" edge="1">
          <mxGeometry width="50" height="50" relative="1" as="geometry">
            <mxPoint x="-332" y="405" as="sourcePoint" />
            <mxPoint x="-332.5" y="-21" as="targetPoint" />
          </mxGeometry>
        </mxCell>
        <mxCell id="5nxavjmpJvt-txKDEjvU-4" value="" style="endArrow=classic;html=1;rounded=0;fontSize=12;startSize=8;endSize=8;curved=1;" parent="5nxavjmpJvt-txKDEjvU-1" edge="1">
          <mxGeometry width="50" height="50" relative="1" as="geometry">
            <mxPoint x="-328" y="29" as="sourcePoint" />
            <mxPoint x="-162.56" y="29" as="targetPoint" />
          </mxGeometry>
        </mxCell>
        <mxCell id="5nxavjmpJvt-txKDEjvU-5" value="&amp;lt;&amp;lt;type keywords in search&lt;div&gt;bar and click search&amp;gt;&amp;gt;&lt;/div&gt;" style="edgeLabel;html=1;align=center;verticalAlign=middle;resizable=0;points=[];fontSize=12;" parent="5nxavjmpJvt-txKDEjvU-4" connectable="0" vertex="1">
          <mxGeometry x="-0.0033" y="1" relative="1" as="geometry">
            <mxPoint as="offset" />
          </mxGeometry>
        </mxCell>
        <mxCell id="5nxavjmpJvt-txKDEjvU-7" value="Client" style="rounded=0;whiteSpace=wrap;html=1;fillColor=#dae8fc;strokeColor=#6C8EBF;" parent="5nxavjmpJvt-txKDEjvU-1" vertex="1">
          <mxGeometry x="-185" y="-71" width="89" height="43" as="geometry" />
        </mxCell>
        <mxCell id="5nxavjmpJvt-txKDEjvU-8" value="" style="whiteSpace=wrap;html=1;align=center;rotation=-90;fillColor=#66B2FF;" parent="5nxavjmpJvt-txKDEjvU-1" vertex="1">
          <mxGeometry x="-280.12" y="124.63" width="275.25" height="40" as="geometry" />
        </mxCell>
        <mxCell id="5nxavjmpJvt-txKDEjvU-12" value="" style="endArrow=classic;html=1;rounded=0;fontSize=12;startSize=8;endSize=8;curved=1;" parent="5nxavjmpJvt-txKDEjvU-1" edge="1">
          <mxGeometry width="50" height="50" relative="1" as="geometry">
            <mxPoint x="-122" y="34" as="sourcePoint" />
            <mxPoint x="34" y="34" as="targetPoint" />
          </mxGeometry>
        </mxCell>
        <mxCell id="5nxavjmpJvt-txKDEjvU-13" value="request for searching&lt;div&gt;most relavent keywords&lt;/div&gt;" style="edgeLabel;html=1;align=center;verticalAlign=middle;resizable=0;points=[];fontSize=12;" parent="5nxavjmpJvt-txKDEjvU-12" connectable="0" vertex="1">
          <mxGeometry x="-0.0152" y="-2" relative="1" as="geometry">
            <mxPoint x="-3" y="-9" as="offset" />
          </mxGeometry>
        </mxCell>
        <mxCell id="5nxavjmpJvt-txKDEjvU-14" value="Server" style="rounded=0;whiteSpace=wrap;html=1;fillColor=#dae8fc;strokeColor=#6C8EBF;" parent="5nxavjmpJvt-txKDEjvU-1" vertex="1">
          <mxGeometry x="11" y="-71" width="89" height="43" as="geometry" />
        </mxCell>
        <mxCell id="5nxavjmpJvt-txKDEjvU-15" value="" style="whiteSpace=wrap;html=1;align=center;rotation=-90;fillColor=#66B2FF;" parent="5nxavjmpJvt-txKDEjvU-1" vertex="1">
          <mxGeometry x="-81.37" y="122.88" width="271.75" height="40" as="geometry" />
        </mxCell>
        <mxCell id="5nxavjmpJvt-txKDEjvU-16" value="" style="endArrow=none;html=1;rounded=0;dashed=1;dashPattern=1 2;" parent="5nxavjmpJvt-txKDEjvU-1" edge="1">
          <mxGeometry relative="1" as="geometry">
            <mxPoint x="54.5" y="-26" as="sourcePoint" />
            <mxPoint x="54.5" y="9" as="targetPoint" />
          </mxGeometry>
        </mxCell>
        <mxCell id="5nxavjmpJvt-txKDEjvU-17" value="" style="resizable=0;html=1;whiteSpace=wrap;align=left;verticalAlign=bottom;" parent="5nxavjmpJvt-txKDEjvU-16" connectable="0" vertex="1">
          <mxGeometry x="-1" relative="1" as="geometry" />
        </mxCell>
        <mxCell id="5nxavjmpJvt-txKDEjvU-18" value="" style="resizable=0;html=1;whiteSpace=wrap;align=right;verticalAlign=bottom;" parent="5nxavjmpJvt-txKDEjvU-16" connectable="0" vertex="1">
          <mxGeometry x="1" relative="1" as="geometry" />
        </mxCell>
        <mxCell id="5nxavjmpJvt-txKDEjvU-19" value="" style="endArrow=classic;html=1;rounded=0;fontSize=12;startSize=8;endSize=8;curved=1;dashed=1;dashPattern=8 8;" parent="5nxavjmpJvt-txKDEjvU-1" edge="1">
          <mxGeometry width="50" height="50" relative="1" as="geometry">
            <mxPoint x="35" y="182" as="sourcePoint" />
            <mxPoint x="-124" y="182" as="targetPoint" />
          </mxGeometry>
        </mxCell>
        <mxCell id="5nxavjmpJvt-txKDEjvU-20" value="response with results ordered&lt;div&gt;by relatedness&lt;/div&gt;" style="edgeLabel;html=1;align=center;verticalAlign=middle;resizable=0;points=[];" parent="5nxavjmpJvt-txKDEjvU-19" vertex="1" connectable="0">
          <mxGeometry x="-0.065" relative="1" as="geometry">
            <mxPoint x="-1" y="-7" as="offset" />
          </mxGeometry>
        </mxCell>
        <mxCell id="5nxavjmpJvt-txKDEjvU-21" value="Database" style="rounded=0;whiteSpace=wrap;html=1;fillColor=#dae8fc;strokeColor=#6C8EBF;" parent="5nxavjmpJvt-txKDEjvU-1" vertex="1">
          <mxGeometry x="212" y="-71" width="89" height="43" as="geometry" />
        </mxCell>
        <mxCell id="5nxavjmpJvt-txKDEjvU-22" value="" style="whiteSpace=wrap;html=1;align=center;rotation=-90;fillColor=#66B2FF;" parent="5nxavjmpJvt-txKDEjvU-1" vertex="1">
          <mxGeometry x="125.75" y="115.75" width="257.5" height="40" as="geometry" />
        </mxCell>
        <mxCell id="5nxavjmpJvt-txKDEjvU-23" value="" style="endArrow=none;html=1;rounded=0;dashed=1;dashPattern=1 2;fontSize=12;startSize=8;endSize=8;curved=1;" parent="5nxavjmpJvt-txKDEjvU-1" edge="1">
          <mxGeometry relative="1" as="geometry">
            <mxPoint x="255.5" y="-27" as="sourcePoint" />
            <mxPoint x="255.5" y="8" as="targetPoint" />
          </mxGeometry>
        </mxCell>
        <mxCell id="5nxavjmpJvt-txKDEjvU-24" value="" style="resizable=0;html=1;whiteSpace=wrap;align=left;verticalAlign=bottom;" parent="5nxavjmpJvt-txKDEjvU-23" connectable="0" vertex="1">
          <mxGeometry x="-1" relative="1" as="geometry" />
        </mxCell>
        <mxCell id="5nxavjmpJvt-txKDEjvU-25" value="" style="resizable=0;html=1;whiteSpace=wrap;align=right;verticalAlign=bottom;" parent="5nxavjmpJvt-txKDEjvU-23" connectable="0" vertex="1">
          <mxGeometry x="1" relative="1" as="geometry" />
        </mxCell>
        <mxCell id="5nxavjmpJvt-txKDEjvU-26" value="" style="endArrow=classic;html=1;rounded=0;fontSize=12;startSize=8;endSize=8;curved=1;entryX=0.553;entryY=0.013;entryDx=0;entryDy=0;entryPerimeter=0;" parent="5nxavjmpJvt-txKDEjvU-1" edge="1">
          <mxGeometry width="50" height="50" relative="1" as="geometry">
            <mxPoint x="75" y="35" as="sourcePoint" />
            <mxPoint x="234.01999999999998" y="35.102499999999964" as="targetPoint" />
          </mxGeometry>
        </mxCell>
        <mxCell id="5nxavjmpJvt-txKDEjvU-27" value="request for searching&amp;nbsp;&lt;div&gt;the most relavent entries&lt;/div&gt;" style="edgeLabel;html=1;align=center;verticalAlign=middle;resizable=0;points=[];fontSize=12;" parent="5nxavjmpJvt-txKDEjvU-26" connectable="0" vertex="1">
          <mxGeometry x="-0.0152" y="-2" relative="1" as="geometry">
            <mxPoint x="-3" y="-1" as="offset" />
          </mxGeometry>
        </mxCell>
        <mxCell id="5nxavjmpJvt-txKDEjvU-34" value="" style="endArrow=classic;html=1;rounded=0;fontSize=12;startSize=8;endSize=8;curved=1;dashed=1;dashPattern=8 8;" parent="5nxavjmpJvt-txKDEjvU-1" edge="1">
          <mxGeometry width="50" height="50" relative="1" as="geometry">
            <mxPoint x="233" y="186" as="sourcePoint" />
            <mxPoint x="74" y="186" as="targetPoint" />
          </mxGeometry>
        </mxCell>
        <mxCell id="5nxavjmpJvt-txKDEjvU-35" value="response with most relavent&lt;div&gt;results and ordered by&lt;/div&gt;&lt;div&gt;relatedness&lt;br&gt;&lt;/div&gt;" style="edgeLabel;html=1;align=center;verticalAlign=middle;resizable=0;points=[];" parent="5nxavjmpJvt-txKDEjvU-34" vertex="1" connectable="0">
          <mxGeometry x="-0.065" relative="1" as="geometry">
            <mxPoint x="-1" y="-7" as="offset" />
          </mxGeometry>
        </mxCell>
        <mxCell id="5nxavjmpJvt-txKDEjvU-43" value="" style="endArrow=none;html=1;rounded=0;dashed=1;dashPattern=1 2;entryX=1;entryY=0.5;entryDx=0;entryDy=0;" parent="5nxavjmpJvt-txKDEjvU-1" edge="1">
          <mxGeometry relative="1" as="geometry">
            <mxPoint x="52.5" y="280" as="sourcePoint" />
            <mxPoint x="52.5" y="372" as="targetPoint" />
          </mxGeometry>
        </mxCell>
        <mxCell id="5nxavjmpJvt-txKDEjvU-44" value="" style="resizable=0;html=1;whiteSpace=wrap;align=left;verticalAlign=bottom;" parent="5nxavjmpJvt-txKDEjvU-43" connectable="0" vertex="1">
          <mxGeometry x="-1" relative="1" as="geometry" />
        </mxCell>
        <mxCell id="5nxavjmpJvt-txKDEjvU-46" value="" style="endArrow=none;html=1;rounded=0;dashed=1;dashPattern=1 2;" parent="5nxavjmpJvt-txKDEjvU-1" edge="1">
          <mxGeometry relative="1" as="geometry">
            <mxPoint x="253.83" y="266" as="sourcePoint" />
            <mxPoint x="254" y="379" as="targetPoint" />
          </mxGeometry>
        </mxCell>
        <mxCell id="5nxavjmpJvt-txKDEjvU-47" value="" style="resizable=0;html=1;whiteSpace=wrap;align=left;verticalAlign=bottom;" parent="5nxavjmpJvt-txKDEjvU-46" connectable="0" vertex="1">
          <mxGeometry x="-1" relative="1" as="geometry" />
        </mxCell>
        <mxCell id="Ret43_mCPy73S2fE845U-0" value="" style="endArrow=none;html=1;rounded=0;dashed=1;dashPattern=1 2;entryX=1;entryY=0.5;entryDx=0;entryDy=0;" edge="1" parent="5nxavjmpJvt-txKDEjvU-1">
          <mxGeometry relative="1" as="geometry">
            <mxPoint x="-142.99" y="282" as="sourcePoint" />
            <mxPoint x="-142.99" y="374" as="targetPoint" />
          </mxGeometry>
        </mxCell>
        <mxCell id="Ret43_mCPy73S2fE845U-1" value="" style="resizable=0;html=1;whiteSpace=wrap;align=left;verticalAlign=bottom;" connectable="0" vertex="1" parent="Ret43_mCPy73S2fE845U-0">
          <mxGeometry x="-1" relative="1" as="geometry" />
        </mxCell>
        <mxCell id="ysmtt10sUA6L_YOR_-H1-0" value="" style="endArrow=none;html=1;rounded=0;dashed=1;dashPattern=1 2;" edge="1" parent="5nxavjmpJvt-txKDEjvU-1">
          <mxGeometry relative="1" as="geometry">
            <mxPoint x="-143.5" y="-28" as="sourcePoint" />
            <mxPoint x="-143.5" y="7" as="targetPoint" />
          </mxGeometry>
        </mxCell>
        <mxCell id="ysmtt10sUA6L_YOR_-H1-1" value="" style="resizable=0;html=1;whiteSpace=wrap;align=left;verticalAlign=bottom;" connectable="0" vertex="1" parent="ysmtt10sUA6L_YOR_-H1-0">
          <mxGeometry x="-1" relative="1" as="geometry" />
        </mxCell>
        <mxCell id="ysmtt10sUA6L_YOR_-H1-2" value="" style="resizable=0;html=1;whiteSpace=wrap;align=right;verticalAlign=bottom;" connectable="0" vertex="1" parent="ysmtt10sUA6L_YOR_-H1-0">
          <mxGeometry x="1" relative="1" as="geometry" />
        </mxCell>
      </root>
    </mxGraphModel>
  </diagram>
  <diagram name="sequence of events when users create entries 的副本" id="L8uLUqgPucJ3biXAZES2">
    <mxGraphModel grid="0" page="0" gridSize="10" guides="1" tooltips="1" connect="1" arrows="1" fold="1" pageScale="1" pageWidth="827" pageHeight="1169" math="0" shadow="0">
      <root>
        <mxCell id="7ybHBsH86YQKsqahvGiY-0" />
        <mxCell id="7ybHBsH86YQKsqahvGiY-1" parent="7ybHBsH86YQKsqahvGiY-0" />
        <mxCell id="7ybHBsH86YQKsqahvGiY-2" value="User" style="shape=umlActor;verticalLabelPosition=bottom;verticalAlign=top;html=1;outlineConnect=0;" parent="7ybHBsH86YQKsqahvGiY-1" vertex="1">
          <mxGeometry x="-347" y="-101" width="30" height="60" as="geometry" />
        </mxCell>
        <mxCell id="7ybHBsH86YQKsqahvGiY-3" value="" style="endArrow=none;dashed=1;html=1;dashPattern=1 3;strokeWidth=2;rounded=0;fontSize=12;startSize=8;endSize=8;curved=1;" parent="7ybHBsH86YQKsqahvGiY-1" edge="1">
          <mxGeometry width="50" height="50" relative="1" as="geometry">
            <mxPoint x="-332" y="836" as="sourcePoint" />
            <mxPoint x="-332.5" y="-21" as="targetPoint" />
          </mxGeometry>
        </mxCell>
        <mxCell id="7ybHBsH86YQKsqahvGiY-4" value="" style="endArrow=classic;html=1;rounded=0;fontSize=12;startSize=8;endSize=8;curved=1;" parent="7ybHBsH86YQKsqahvGiY-1" edge="1">
          <mxGeometry width="50" height="50" relative="1" as="geometry">
            <mxPoint x="-328" y="29" as="sourcePoint" />
            <mxPoint x="-162.56" y="29" as="targetPoint" />
          </mxGeometry>
        </mxCell>
        <mxCell id="7ybHBsH86YQKsqahvGiY-5" value="&amp;lt;&amp;lt;click on create&amp;nbsp;&lt;div&gt;review button/&lt;/div&gt;&lt;div&gt;edit review button&lt;br&gt;&lt;div&gt;under a product entry&amp;gt;&amp;gt;&lt;/div&gt;&lt;/div&gt;" style="edgeLabel;html=1;align=center;verticalAlign=middle;resizable=0;points=[];fontSize=12;" parent="7ybHBsH86YQKsqahvGiY-4" connectable="0" vertex="1">
          <mxGeometry x="-0.0033" y="1" relative="1" as="geometry">
            <mxPoint as="offset" />
          </mxGeometry>
        </mxCell>
        <mxCell id="7ybHBsH86YQKsqahvGiY-7" value="Client" style="rounded=0;whiteSpace=wrap;html=1;fillColor=#dae8fc;strokeColor=#6C8EBF;" parent="7ybHBsH86YQKsqahvGiY-1" vertex="1">
          <mxGeometry x="-185" y="-71" width="89" height="43" as="geometry" />
        </mxCell>
        <mxCell id="7ybHBsH86YQKsqahvGiY-8" value="" style="whiteSpace=wrap;html=1;align=center;rotation=-90;fillColor=#66B2FF;" parent="7ybHBsH86YQKsqahvGiY-1" vertex="1">
          <mxGeometry x="-308.25" y="152.75" width="331.5" height="40" as="geometry" />
        </mxCell>
        <mxCell id="7ybHBsH86YQKsqahvGiY-12" value="" style="endArrow=classic;html=1;rounded=0;fontSize=12;startSize=8;endSize=8;curved=1;" parent="7ybHBsH86YQKsqahvGiY-1" edge="1">
          <mxGeometry width="50" height="50" relative="1" as="geometry">
            <mxPoint x="-122" y="34" as="sourcePoint" />
            <mxPoint x="34" y="34" as="targetPoint" />
          </mxGeometry>
        </mxCell>
        <mxCell id="7ybHBsH86YQKsqahvGiY-13" value="request for new or&lt;div&gt;update review&lt;div&gt;under the product entry&lt;/div&gt;&lt;/div&gt;" style="edgeLabel;html=1;align=center;verticalAlign=middle;resizable=0;points=[];fontSize=12;" parent="7ybHBsH86YQKsqahvGiY-12" connectable="0" vertex="1">
          <mxGeometry x="-0.0152" y="-2" relative="1" as="geometry">
            <mxPoint x="-3" y="-9" as="offset" />
          </mxGeometry>
        </mxCell>
        <mxCell id="7ybHBsH86YQKsqahvGiY-14" value="Server" style="rounded=0;whiteSpace=wrap;html=1;fillColor=#dae8fc;strokeColor=#6C8EBF;" parent="7ybHBsH86YQKsqahvGiY-1" vertex="1">
          <mxGeometry x="11" y="-71" width="89" height="43" as="geometry" />
        </mxCell>
        <mxCell id="7ybHBsH86YQKsqahvGiY-15" value="" style="whiteSpace=wrap;html=1;align=center;rotation=-90;fillColor=#66B2FF;" parent="7ybHBsH86YQKsqahvGiY-1" vertex="1">
          <mxGeometry x="-81.37" y="122.88" width="271.75" height="40" as="geometry" />
        </mxCell>
        <mxCell id="7ybHBsH86YQKsqahvGiY-16" value="" style="endArrow=none;html=1;rounded=0;dashed=1;dashPattern=1 2;" parent="7ybHBsH86YQKsqahvGiY-1" edge="1">
          <mxGeometry relative="1" as="geometry">
            <mxPoint x="54.5" y="-26" as="sourcePoint" />
            <mxPoint x="54.5" y="9" as="targetPoint" />
          </mxGeometry>
        </mxCell>
        <mxCell id="7ybHBsH86YQKsqahvGiY-17" value="" style="resizable=0;html=1;whiteSpace=wrap;align=left;verticalAlign=bottom;" parent="7ybHBsH86YQKsqahvGiY-16" connectable="0" vertex="1">
          <mxGeometry x="-1" relative="1" as="geometry" />
        </mxCell>
        <mxCell id="7ybHBsH86YQKsqahvGiY-18" value="" style="resizable=0;html=1;whiteSpace=wrap;align=right;verticalAlign=bottom;" parent="7ybHBsH86YQKsqahvGiY-16" connectable="0" vertex="1">
          <mxGeometry x="1" relative="1" as="geometry" />
        </mxCell>
        <mxCell id="7ybHBsH86YQKsqahvGiY-19" value="" style="endArrow=classic;html=1;rounded=0;fontSize=12;startSize=8;endSize=8;curved=1;dashed=1;dashPattern=8 8;" parent="7ybHBsH86YQKsqahvGiY-1" edge="1">
          <mxGeometry width="50" height="50" relative="1" as="geometry">
            <mxPoint x="35" y="182" as="sourcePoint" />
            <mxPoint x="-124" y="182" as="targetPoint" />
          </mxGeometry>
        </mxCell>
        <mxCell id="7ybHBsH86YQKsqahvGiY-20" value="response with new review&lt;div&gt;details&lt;/div&gt;" style="edgeLabel;html=1;align=center;verticalAlign=middle;resizable=0;points=[];" parent="7ybHBsH86YQKsqahvGiY-19" vertex="1" connectable="0">
          <mxGeometry x="-0.065" relative="1" as="geometry">
            <mxPoint x="-1" y="-7" as="offset" />
          </mxGeometry>
        </mxCell>
        <mxCell id="7ybHBsH86YQKsqahvGiY-21" value="Database" style="rounded=0;whiteSpace=wrap;html=1;fillColor=#dae8fc;strokeColor=#6C8EBF;" parent="7ybHBsH86YQKsqahvGiY-1" vertex="1">
          <mxGeometry x="212" y="-71" width="89" height="43" as="geometry" />
        </mxCell>
        <mxCell id="7ybHBsH86YQKsqahvGiY-22" value="" style="whiteSpace=wrap;html=1;align=center;rotation=-90;fillColor=#66B2FF;" parent="7ybHBsH86YQKsqahvGiY-1" vertex="1">
          <mxGeometry x="125.75" y="115.75" width="257.5" height="40" as="geometry" />
        </mxCell>
        <mxCell id="7ybHBsH86YQKsqahvGiY-23" value="" style="endArrow=none;html=1;rounded=0;dashed=1;dashPattern=1 2;fontSize=12;startSize=8;endSize=8;curved=1;" parent="7ybHBsH86YQKsqahvGiY-1" edge="1">
          <mxGeometry relative="1" as="geometry">
            <mxPoint x="255.5" y="-27" as="sourcePoint" />
            <mxPoint x="255.5" y="8" as="targetPoint" />
          </mxGeometry>
        </mxCell>
        <mxCell id="7ybHBsH86YQKsqahvGiY-24" value="" style="resizable=0;html=1;whiteSpace=wrap;align=left;verticalAlign=bottom;" parent="7ybHBsH86YQKsqahvGiY-23" connectable="0" vertex="1">
          <mxGeometry x="-1" relative="1" as="geometry" />
        </mxCell>
        <mxCell id="7ybHBsH86YQKsqahvGiY-25" value="" style="resizable=0;html=1;whiteSpace=wrap;align=right;verticalAlign=bottom;" parent="7ybHBsH86YQKsqahvGiY-23" connectable="0" vertex="1">
          <mxGeometry x="1" relative="1" as="geometry" />
        </mxCell>
        <mxCell id="7ybHBsH86YQKsqahvGiY-26" value="" style="endArrow=classic;html=1;rounded=0;fontSize=12;startSize=8;endSize=8;curved=1;entryX=0.553;entryY=0.013;entryDx=0;entryDy=0;entryPerimeter=0;" parent="7ybHBsH86YQKsqahvGiY-1" target="7ybHBsH86YQKsqahvGiY-22" edge="1">
          <mxGeometry width="50" height="50" relative="1" as="geometry">
            <mxPoint x="76" y="122" as="sourcePoint" />
            <mxPoint x="224" y="122" as="targetPoint" />
          </mxGeometry>
        </mxCell>
        <mxCell id="7ybHBsH86YQKsqahvGiY-27" value="request for adding&lt;div&gt;or editing new&lt;div&gt;review under the&amp;nbsp;&lt;/div&gt;&lt;div&gt;product data&lt;/div&gt;&lt;/div&gt;" style="edgeLabel;html=1;align=center;verticalAlign=middle;resizable=0;points=[];fontSize=12;" parent="7ybHBsH86YQKsqahvGiY-26" connectable="0" vertex="1">
          <mxGeometry x="-0.0152" y="-2" relative="1" as="geometry">
            <mxPoint x="-3" y="-1" as="offset" />
          </mxGeometry>
        </mxCell>
        <mxCell id="7ybHBsH86YQKsqahvGiY-28" value="" style="rounded=0;whiteSpace=wrap;html=1;fillColor=#f0a30a;strokeColor=#BD7000;fontColor=#000000;" parent="7ybHBsH86YQKsqahvGiY-1" vertex="1">
          <mxGeometry x="67" y="9" width="46" height="72" as="geometry" />
        </mxCell>
        <mxCell id="7ybHBsH86YQKsqahvGiY-29" value="" style="edgeStyle=elbowEdgeStyle;elbow=horizontal;endArrow=classic;html=1;curved=0;rounded=0;endSize=8;startSize=8;fontSize=12;entryX=1;entryY=0.75;entryDx=0;entryDy=0;" parent="7ybHBsH86YQKsqahvGiY-1" edge="1">
          <mxGeometry width="50" height="50" relative="1" as="geometry">
            <mxPoint x="113" y="24" as="sourcePoint" />
            <mxPoint x="113" y="63" as="targetPoint" />
            <Array as="points">
              <mxPoint x="215" y="45" />
            </Array>
          </mxGeometry>
        </mxCell>
        <mxCell id="7ybHBsH86YQKsqahvGiY-30" value="check&amp;nbsp;&lt;div&gt;validation&amp;nbsp;&lt;/div&gt;&lt;div&gt;(sensitive&lt;/div&gt;&lt;div&gt;words)&lt;/div&gt;" style="edgeLabel;html=1;align=center;verticalAlign=middle;resizable=0;points=[];fontSize=12;" parent="7ybHBsH86YQKsqahvGiY-29" vertex="1" connectable="0">
          <mxGeometry x="-0.6331" y="2" relative="1" as="geometry">
            <mxPoint x="8" y="12" as="offset" />
          </mxGeometry>
        </mxCell>
        <mxCell id="7ybHBsH86YQKsqahvGiY-31" value="" style="rounded=0;whiteSpace=wrap;html=1;fillColor=#f0a30a;strokeColor=#BD7000;fontColor=#000000;" parent="7ybHBsH86YQKsqahvGiY-1" vertex="1">
          <mxGeometry x="-137" y="232" width="46" height="72" as="geometry" />
        </mxCell>
        <mxCell id="7ybHBsH86YQKsqahvGiY-32" value="" style="edgeStyle=elbowEdgeStyle;elbow=horizontal;endArrow=classic;html=1;curved=0;rounded=0;endSize=8;startSize=8;fontSize=12;entryX=1;entryY=0.75;entryDx=0;entryDy=0;" parent="7ybHBsH86YQKsqahvGiY-1" edge="1">
          <mxGeometry width="50" height="50" relative="1" as="geometry">
            <mxPoint x="-91" y="247" as="sourcePoint" />
            <mxPoint x="-91" y="286" as="targetPoint" />
            <Array as="points">
              <mxPoint x="11" y="268" />
            </Array>
          </mxGeometry>
        </mxCell>
        <mxCell id="7ybHBsH86YQKsqahvGiY-33" value="if failed, prompt&amp;nbsp;&lt;div&gt;for editing again&amp;nbsp;&lt;/div&gt;" style="edgeLabel;html=1;align=center;verticalAlign=middle;resizable=0;points=[];fontSize=12;" parent="7ybHBsH86YQKsqahvGiY-32" vertex="1" connectable="0">
          <mxGeometry x="-0.6331" y="2" relative="1" as="geometry">
            <mxPoint x="9" y="9" as="offset" />
          </mxGeometry>
        </mxCell>
        <mxCell id="7ybHBsH86YQKsqahvGiY-34" value="" style="endArrow=classic;html=1;rounded=0;fontSize=12;startSize=8;endSize=8;curved=1;dashed=1;dashPattern=8 8;" parent="7ybHBsH86YQKsqahvGiY-1" edge="1">
          <mxGeometry width="50" height="50" relative="1" as="geometry">
            <mxPoint x="233" y="186" as="sourcePoint" />
            <mxPoint x="74" y="186" as="targetPoint" />
          </mxGeometry>
        </mxCell>
        <mxCell id="7ybHBsH86YQKsqahvGiY-35" value="response with updated&lt;div&gt;product data&lt;/div&gt;" style="edgeLabel;html=1;align=center;verticalAlign=middle;resizable=0;points=[];" parent="7ybHBsH86YQKsqahvGiY-34" vertex="1" connectable="0">
          <mxGeometry x="-0.065" relative="1" as="geometry">
            <mxPoint x="-1" y="-7" as="offset" />
          </mxGeometry>
        </mxCell>
        <mxCell id="7ybHBsH86YQKsqahvGiY-36" value="" style="endArrow=classic;html=1;rounded=0;fontSize=12;startSize=8;endSize=8;curved=1;entryX=0.576;entryY=0.071;entryDx=0;entryDy=0;entryPerimeter=0;" parent="7ybHBsH86YQKsqahvGiY-1" edge="1">
          <mxGeometry width="50" height="50" relative="1" as="geometry">
            <mxPoint x="-330" y="396" as="sourcePoint" />
            <mxPoint x="-159.65999999999985" y="395.72" as="targetPoint" />
          </mxGeometry>
        </mxCell>
        <mxCell id="7ybHBsH86YQKsqahvGiY-37" value="&amp;lt;&amp;lt;click on report button&lt;div&gt;under a product entry&amp;gt;&amp;gt;&lt;/div&gt;" style="edgeLabel;html=1;align=center;verticalAlign=middle;resizable=0;points=[];fontSize=12;" parent="7ybHBsH86YQKsqahvGiY-36" connectable="0" vertex="1">
          <mxGeometry x="-0.0033" y="1" relative="1" as="geometry">
            <mxPoint as="offset" />
          </mxGeometry>
        </mxCell>
        <mxCell id="7ybHBsH86YQKsqahvGiY-38" value="" style="whiteSpace=wrap;html=1;align=center;rotation=-90;fillColor=#66B2FF;" parent="7ybHBsH86YQKsqahvGiY-1" vertex="1">
          <mxGeometry x="-251.5" y="461" width="218" height="40" as="geometry" />
        </mxCell>
        <mxCell id="7ybHBsH86YQKsqahvGiY-39" value="" style="endArrow=none;html=1;rounded=0;dashed=1;dashPattern=1 2;" parent="7ybHBsH86YQKsqahvGiY-1" edge="1">
          <mxGeometry relative="1" as="geometry">
            <mxPoint x="-141.5" y="338" as="sourcePoint" />
            <mxPoint x="-141.5" y="373" as="targetPoint" />
          </mxGeometry>
        </mxCell>
        <mxCell id="7ybHBsH86YQKsqahvGiY-40" value="" style="resizable=0;html=1;whiteSpace=wrap;align=left;verticalAlign=bottom;" parent="7ybHBsH86YQKsqahvGiY-39" connectable="0" vertex="1">
          <mxGeometry x="-1" relative="1" as="geometry" />
        </mxCell>
        <mxCell id="7ybHBsH86YQKsqahvGiY-41" value="" style="resizable=0;html=1;whiteSpace=wrap;align=right;verticalAlign=bottom;" parent="7ybHBsH86YQKsqahvGiY-39" connectable="0" vertex="1">
          <mxGeometry x="1" relative="1" as="geometry" />
        </mxCell>
        <mxCell id="7ybHBsH86YQKsqahvGiY-42" value="" style="whiteSpace=wrap;html=1;align=center;rotation=-90;fillColor=#66B2FF;" parent="7ybHBsH86YQKsqahvGiY-1" vertex="1">
          <mxGeometry x="-59.25" y="463.75" width="223.5" height="40" as="geometry" />
        </mxCell>
        <mxCell id="7ybHBsH86YQKsqahvGiY-43" value="" style="endArrow=none;html=1;rounded=0;dashed=1;dashPattern=1 2;entryX=1;entryY=0.5;entryDx=0;entryDy=0;" parent="7ybHBsH86YQKsqahvGiY-1" target="7ybHBsH86YQKsqahvGiY-42" edge="1">
          <mxGeometry relative="1" as="geometry">
            <mxPoint x="52.5" y="280" as="sourcePoint" />
            <mxPoint x="52.5" y="315" as="targetPoint" />
          </mxGeometry>
        </mxCell>
        <mxCell id="7ybHBsH86YQKsqahvGiY-44" value="" style="resizable=0;html=1;whiteSpace=wrap;align=left;verticalAlign=bottom;" parent="7ybHBsH86YQKsqahvGiY-43" connectable="0" vertex="1">
          <mxGeometry x="-1" relative="1" as="geometry" />
        </mxCell>
        <mxCell id="7ybHBsH86YQKsqahvGiY-45" value="" style="resizable=0;html=1;whiteSpace=wrap;align=right;verticalAlign=bottom;" parent="7ybHBsH86YQKsqahvGiY-43" connectable="0" vertex="1">
          <mxGeometry x="1" relative="1" as="geometry" />
        </mxCell>
        <mxCell id="7ybHBsH86YQKsqahvGiY-46" value="" style="endArrow=none;html=1;rounded=0;dashed=1;dashPattern=1 2;" parent="7ybHBsH86YQKsqahvGiY-1" edge="1">
          <mxGeometry relative="1" as="geometry">
            <mxPoint x="253.83" y="266" as="sourcePoint" />
            <mxPoint x="254" y="379" as="targetPoint" />
          </mxGeometry>
        </mxCell>
        <mxCell id="7ybHBsH86YQKsqahvGiY-47" value="" style="resizable=0;html=1;whiteSpace=wrap;align=left;verticalAlign=bottom;" parent="7ybHBsH86YQKsqahvGiY-46" connectable="0" vertex="1">
          <mxGeometry x="-1" relative="1" as="geometry" />
        </mxCell>
        <mxCell id="7ybHBsH86YQKsqahvGiY-48" value="" style="resizable=0;html=1;whiteSpace=wrap;align=right;verticalAlign=bottom;" parent="7ybHBsH86YQKsqahvGiY-46" connectable="0" vertex="1">
          <mxGeometry x="1" relative="1" as="geometry" />
        </mxCell>
        <mxCell id="7ybHBsH86YQKsqahvGiY-49" value="" style="whiteSpace=wrap;html=1;align=center;rotation=-90;fillColor=#66B2FF;" parent="7ybHBsH86YQKsqahvGiY-1" vertex="1">
          <mxGeometry x="144.5" y="464.5" width="220" height="40" as="geometry" />
        </mxCell>
        <mxCell id="7ybHBsH86YQKsqahvGiY-50" value="" style="endArrow=classic;html=1;rounded=0;fontSize=12;startSize=8;endSize=8;curved=1;" parent="7ybHBsH86YQKsqahvGiY-1" edge="1">
          <mxGeometry width="50" height="50" relative="1" as="geometry">
            <mxPoint x="-123" y="404" as="sourcePoint" />
            <mxPoint x="33" y="404" as="targetPoint" />
          </mxGeometry>
        </mxCell>
        <mxCell id="7ybHBsH86YQKsqahvGiY-51" value="request for checking/&lt;div&gt;editing the report&lt;/div&gt;&lt;div&gt;by managers&lt;/div&gt;" style="edgeLabel;html=1;align=center;verticalAlign=middle;resizable=0;points=[];fontSize=12;" parent="7ybHBsH86YQKsqahvGiY-50" connectable="0" vertex="1">
          <mxGeometry x="-0.0152" y="-2" relative="1" as="geometry">
            <mxPoint x="-3" y="-9" as="offset" />
          </mxGeometry>
        </mxCell>
        <mxCell id="7ybHBsH86YQKsqahvGiY-55" value="" style="endArrow=classic;html=1;rounded=0;fontSize=12;startSize=8;endSize=8;curved=1;entryX=0.553;entryY=0.013;entryDx=0;entryDy=0;entryPerimeter=0;" parent="7ybHBsH86YQKsqahvGiY-1" edge="1">
          <mxGeometry width="50" height="50" relative="1" as="geometry">
            <mxPoint x="73" y="405" as="sourcePoint" />
            <mxPoint x="232" y="405" as="targetPoint" />
          </mxGeometry>
        </mxCell>
        <mxCell id="7ybHBsH86YQKsqahvGiY-56" value="request for changing&lt;div&gt;checking status as&lt;/div&gt;&lt;div&gt;&quot;await checking&quot;&lt;/div&gt;" style="edgeLabel;html=1;align=center;verticalAlign=middle;resizable=0;points=[];fontSize=12;" parent="7ybHBsH86YQKsqahvGiY-55" connectable="0" vertex="1">
          <mxGeometry x="-0.0152" y="-2" relative="1" as="geometry">
            <mxPoint x="-3" y="-1" as="offset" />
          </mxGeometry>
        </mxCell>
        <mxCell id="7ybHBsH86YQKsqahvGiY-57" value="" style="endArrow=classic;html=1;rounded=0;fontSize=12;startSize=8;endSize=8;curved=1;dashed=1;dashPattern=8 8;" parent="7ybHBsH86YQKsqahvGiY-1" edge="1">
          <mxGeometry width="50" height="50" relative="1" as="geometry">
            <mxPoint x="232" y="515.5" as="sourcePoint" />
            <mxPoint x="73" y="515.5" as="targetPoint" />
          </mxGeometry>
        </mxCell>
        <mxCell id="7ybHBsH86YQKsqahvGiY-58" value="response with new checking&lt;div&gt;status&lt;/div&gt;" style="edgeLabel;html=1;align=center;verticalAlign=middle;resizable=0;points=[];" parent="7ybHBsH86YQKsqahvGiY-57" vertex="1" connectable="0">
          <mxGeometry x="-0.065" relative="1" as="geometry">
            <mxPoint x="-1" y="-7" as="offset" />
          </mxGeometry>
        </mxCell>
        <mxCell id="7ybHBsH86YQKsqahvGiY-59" value="" style="endArrow=classic;html=1;rounded=0;fontSize=12;startSize=8;endSize=8;curved=1;dashed=1;dashPattern=8 8;" parent="7ybHBsH86YQKsqahvGiY-1" edge="1">
          <mxGeometry width="50" height="50" relative="1" as="geometry">
            <mxPoint x="31" y="515.5" as="sourcePoint" />
            <mxPoint x="-128" y="515.5" as="targetPoint" />
          </mxGeometry>
        </mxCell>
        <mxCell id="7ybHBsH86YQKsqahvGiY-60" value="response with notification&lt;div&gt;of reporting successfully&lt;/div&gt;" style="edgeLabel;html=1;align=center;verticalAlign=middle;resizable=0;points=[];" parent="7ybHBsH86YQKsqahvGiY-59" vertex="1" connectable="0">
          <mxGeometry x="-0.065" relative="1" as="geometry">
            <mxPoint x="-1" y="-8" as="offset" />
          </mxGeometry>
        </mxCell>
        <mxCell id="7ybHBsH86YQKsqahvGiY-64" value="" style="endArrow=none;html=1;rounded=0;dashed=1;dashPattern=1 2;entryX=1;entryY=0.5;entryDx=0;entryDy=0;" parent="7ybHBsH86YQKsqahvGiY-1" target="7ybHBsH86YQKsqahvGiY-78" edge="1">
          <mxGeometry relative="1" as="geometry">
            <mxPoint x="53" y="597" as="sourcePoint" />
            <mxPoint x="52" y="609" as="targetPoint" />
          </mxGeometry>
        </mxCell>
        <mxCell id="7ybHBsH86YQKsqahvGiY-65" value="" style="resizable=0;html=1;whiteSpace=wrap;align=left;verticalAlign=bottom;" parent="7ybHBsH86YQKsqahvGiY-64" connectable="0" vertex="1">
          <mxGeometry x="-1" relative="1" as="geometry" />
        </mxCell>
        <mxCell id="7ybHBsH86YQKsqahvGiY-66" value="" style="resizable=0;html=1;whiteSpace=wrap;align=right;verticalAlign=bottom;" parent="7ybHBsH86YQKsqahvGiY-64" connectable="0" vertex="1">
          <mxGeometry x="1" relative="1" as="geometry" />
        </mxCell>
        <mxCell id="7ybHBsH86YQKsqahvGiY-67" value="" style="endArrow=none;html=1;rounded=0;dashed=1;dashPattern=1 2;entryX=0.939;entryY=0.612;entryDx=0;entryDy=0;entryPerimeter=0;" parent="7ybHBsH86YQKsqahvGiY-1" target="7ybHBsH86YQKsqahvGiY-83" edge="1">
          <mxGeometry relative="1" as="geometry">
            <mxPoint x="256" y="595" as="sourcePoint" />
            <mxPoint x="255.99" y="607" as="targetPoint" />
          </mxGeometry>
        </mxCell>
        <mxCell id="7ybHBsH86YQKsqahvGiY-68" value="" style="resizable=0;html=1;whiteSpace=wrap;align=left;verticalAlign=bottom;" parent="7ybHBsH86YQKsqahvGiY-67" connectable="0" vertex="1">
          <mxGeometry x="-1" relative="1" as="geometry" />
        </mxCell>
        <mxCell id="7ybHBsH86YQKsqahvGiY-69" value="" style="resizable=0;html=1;whiteSpace=wrap;align=right;verticalAlign=bottom;" parent="7ybHBsH86YQKsqahvGiY-67" connectable="0" vertex="1">
          <mxGeometry x="1" relative="1" as="geometry" />
        </mxCell>
        <mxCell id="7ybHBsH86YQKsqahvGiY-70" value="" style="endArrow=classic;html=1;rounded=0;fontSize=12;startSize=8;endSize=8;curved=1;entryX=0.576;entryY=0.071;entryDx=0;entryDy=0;entryPerimeter=0;" parent="7ybHBsH86YQKsqahvGiY-1" edge="1">
          <mxGeometry width="50" height="50" relative="1" as="geometry">
            <mxPoint x="-333" y="727.28" as="sourcePoint" />
            <mxPoint x="-162.65999999999985" y="727" as="targetPoint" />
          </mxGeometry>
        </mxCell>
        <mxCell id="7ybHBsH86YQKsqahvGiY-71" value="&amp;lt;&amp;lt;click on delete your&lt;div&gt;review&amp;gt;&amp;gt;&lt;/div&gt;" style="edgeLabel;html=1;align=center;verticalAlign=middle;resizable=0;points=[];fontSize=12;" parent="7ybHBsH86YQKsqahvGiY-70" connectable="0" vertex="1">
          <mxGeometry x="-0.0033" y="1" relative="1" as="geometry">
            <mxPoint x="-8" as="offset" />
          </mxGeometry>
        </mxCell>
        <mxCell id="7ybHBsH86YQKsqahvGiY-72" value="" style="whiteSpace=wrap;html=1;align=center;rotation=-90;fillColor=#66B2FF;" parent="7ybHBsH86YQKsqahvGiY-1" vertex="1">
          <mxGeometry x="-218" y="695.5" width="155" height="40" as="geometry" />
        </mxCell>
        <mxCell id="7ybHBsH86YQKsqahvGiY-73" value="" style="endArrow=none;html=1;rounded=0;dashed=1;dashPattern=1 2;" parent="7ybHBsH86YQKsqahvGiY-1" edge="1">
          <mxGeometry relative="1" as="geometry">
            <mxPoint x="-142" y="590" as="sourcePoint" />
            <mxPoint x="-141.5" y="639" as="targetPoint" />
          </mxGeometry>
        </mxCell>
        <mxCell id="7ybHBsH86YQKsqahvGiY-74" value="" style="resizable=0;html=1;whiteSpace=wrap;align=left;verticalAlign=bottom;" parent="7ybHBsH86YQKsqahvGiY-73" connectable="0" vertex="1">
          <mxGeometry x="-1" relative="1" as="geometry" />
        </mxCell>
        <mxCell id="7ybHBsH86YQKsqahvGiY-75" value="" style="resizable=0;html=1;whiteSpace=wrap;align=right;verticalAlign=bottom;" parent="7ybHBsH86YQKsqahvGiY-73" connectable="0" vertex="1">
          <mxGeometry x="1" relative="1" as="geometry">
            <mxPoint as="offset" />
          </mxGeometry>
        </mxCell>
        <mxCell id="7ybHBsH86YQKsqahvGiY-76" value="" style="endArrow=classic;html=1;rounded=0;fontSize=12;startSize=8;endSize=8;curved=1;" parent="7ybHBsH86YQKsqahvGiY-1" edge="1">
          <mxGeometry width="50" height="50" relative="1" as="geometry">
            <mxPoint x="-122" y="665" as="sourcePoint" />
            <mxPoint x="34" y="665" as="targetPoint" />
          </mxGeometry>
        </mxCell>
        <mxCell id="7ybHBsH86YQKsqahvGiY-77" value="request delete the review" style="edgeLabel;html=1;align=center;verticalAlign=middle;resizable=0;points=[];fontSize=12;" parent="7ybHBsH86YQKsqahvGiY-76" connectable="0" vertex="1">
          <mxGeometry x="-0.0152" y="-2" relative="1" as="geometry">
            <mxPoint x="-3" y="-9" as="offset" />
          </mxGeometry>
        </mxCell>
        <mxCell id="7ybHBsH86YQKsqahvGiY-78" value="" style="whiteSpace=wrap;html=1;align=center;rotation=-90;fillColor=#66B2FF;" parent="7ybHBsH86YQKsqahvGiY-1" vertex="1">
          <mxGeometry x="-25" y="695.5" width="155" height="40" as="geometry" />
        </mxCell>
        <mxCell id="7ybHBsH86YQKsqahvGiY-79" value="" style="endArrow=classic;html=1;rounded=0;fontSize=12;startSize=8;endSize=8;curved=1;dashed=1;dashPattern=8 8;" parent="7ybHBsH86YQKsqahvGiY-1" edge="1">
          <mxGeometry width="50" height="50" relative="1" as="geometry">
            <mxPoint x="36" y="745" as="sourcePoint" />
            <mxPoint x="-123" y="745" as="targetPoint" />
          </mxGeometry>
        </mxCell>
        <mxCell id="7ybHBsH86YQKsqahvGiY-80" value="response with delete&amp;nbsp;&lt;div&gt;successfully&lt;/div&gt;" style="edgeLabel;html=1;align=center;verticalAlign=middle;resizable=0;points=[];" parent="7ybHBsH86YQKsqahvGiY-79" vertex="1" connectable="0">
          <mxGeometry x="-0.065" relative="1" as="geometry">
            <mxPoint x="-1" y="-8" as="offset" />
          </mxGeometry>
        </mxCell>
        <mxCell id="7ybHBsH86YQKsqahvGiY-81" value="" style="endArrow=classic;html=1;rounded=0;fontSize=12;startSize=8;endSize=8;curved=1;entryX=0.553;entryY=0.013;entryDx=0;entryDy=0;entryPerimeter=0;" parent="7ybHBsH86YQKsqahvGiY-1" edge="1">
          <mxGeometry width="50" height="50" relative="1" as="geometry">
            <mxPoint x="73" y="666" as="sourcePoint" />
            <mxPoint x="232" y="666" as="targetPoint" />
          </mxGeometry>
        </mxCell>
        <mxCell id="7ybHBsH86YQKsqahvGiY-82" value="request to delete the&lt;div&gt;review&lt;/div&gt;" style="edgeLabel;html=1;align=center;verticalAlign=middle;resizable=0;points=[];fontSize=12;" parent="7ybHBsH86YQKsqahvGiY-81" connectable="0" vertex="1">
          <mxGeometry x="-0.0152" y="-2" relative="1" as="geometry">
            <mxPoint x="-3" y="-1" as="offset" />
          </mxGeometry>
        </mxCell>
        <mxCell id="7ybHBsH86YQKsqahvGiY-83" value="" style="whiteSpace=wrap;html=1;align=center;rotation=-90;fillColor=#66B2FF;" parent="7ybHBsH86YQKsqahvGiY-1" vertex="1">
          <mxGeometry x="174" y="692" width="155" height="40" as="geometry" />
        </mxCell>
        <mxCell id="7ybHBsH86YQKsqahvGiY-84" value="" style="endArrow=classic;html=1;rounded=0;fontSize=12;startSize=8;endSize=8;curved=1;dashed=1;dashPattern=8 8;" parent="7ybHBsH86YQKsqahvGiY-1" edge="1">
          <mxGeometry width="50" height="50" relative="1" as="geometry">
            <mxPoint x="232" y="744" as="sourcePoint" />
            <mxPoint x="73" y="744" as="targetPoint" />
          </mxGeometry>
        </mxCell>
        <mxCell id="7ybHBsH86YQKsqahvGiY-85" value="response with delete&amp;nbsp;&lt;div&gt;successfully&lt;/div&gt;" style="edgeLabel;html=1;align=center;verticalAlign=middle;resizable=0;points=[];" parent="7ybHBsH86YQKsqahvGiY-84" vertex="1" connectable="0">
          <mxGeometry x="-0.065" relative="1" as="geometry">
            <mxPoint x="-1" y="-8" as="offset" />
          </mxGeometry>
        </mxCell>
        <mxCell id="NN_lrmgaZUkxWXAvCBnD-0" value="" style="endArrow=none;html=1;rounded=0;dashed=1;dashPattern=1 2;" edge="1" parent="7ybHBsH86YQKsqahvGiY-1">
          <mxGeometry relative="1" as="geometry">
            <mxPoint x="-141.5" y="-26" as="sourcePoint" />
            <mxPoint x="-141.5" y="9" as="targetPoint" />
          </mxGeometry>
        </mxCell>
        <mxCell id="NN_lrmgaZUkxWXAvCBnD-1" value="" style="resizable=0;html=1;whiteSpace=wrap;align=left;verticalAlign=bottom;" connectable="0" vertex="1" parent="NN_lrmgaZUkxWXAvCBnD-0">
          <mxGeometry x="-1" relative="1" as="geometry" />
        </mxCell>
        <mxCell id="NN_lrmgaZUkxWXAvCBnD-2" value="" style="resizable=0;html=1;whiteSpace=wrap;align=right;verticalAlign=bottom;" connectable="0" vertex="1" parent="NN_lrmgaZUkxWXAvCBnD-0">
          <mxGeometry x="1" relative="1" as="geometry" />
        </mxCell>
      </root>
    </mxGraphModel>
  </diagram>
  <diagram name="sequence of events when users create entries 的副本 的副本" id="fxiqehPqCOK21-F6IFpO">
    <mxGraphModel dx="1861" dy="1052" grid="0" gridSize="10" guides="1" tooltips="1" connect="1" arrows="1" fold="1" page="0" pageScale="1" pageWidth="827" pageHeight="1169" math="0" shadow="0">
      <root>
        <mxCell id="wzEYDMDRP5SNY_Z7sWcz-0" />
        <mxCell id="wzEYDMDRP5SNY_Z7sWcz-1" parent="wzEYDMDRP5SNY_Z7sWcz-0" />
        <mxCell id="wzEYDMDRP5SNY_Z7sWcz-2" value="Head Manager" style="shape=umlActor;verticalLabelPosition=bottom;verticalAlign=top;html=1;outlineConnect=0;" parent="wzEYDMDRP5SNY_Z7sWcz-1" vertex="1">
          <mxGeometry x="-347" y="-101" width="30" height="60" as="geometry" />
        </mxCell>
        <mxCell id="wzEYDMDRP5SNY_Z7sWcz-3" value="" style="endArrow=none;dashed=1;html=1;dashPattern=1 3;strokeWidth=2;rounded=0;fontSize=12;startSize=8;endSize=8;curved=1;" parent="wzEYDMDRP5SNY_Z7sWcz-1" edge="1">
          <mxGeometry width="50" height="50" relative="1" as="geometry">
            <mxPoint x="-328" y="694" as="sourcePoint" />
            <mxPoint x="-332.5" y="-21" as="targetPoint" />
          </mxGeometry>
        </mxCell>
        <mxCell id="wzEYDMDRP5SNY_Z7sWcz-4" value="" style="endArrow=classic;html=1;rounded=0;fontSize=12;startSize=8;endSize=8;curved=1;" parent="wzEYDMDRP5SNY_Z7sWcz-1" edge="1">
          <mxGeometry width="50" height="50" relative="1" as="geometry">
            <mxPoint x="-328" y="29" as="sourcePoint" />
            <mxPoint x="-162.56" y="29" as="targetPoint" />
          </mxGeometry>
        </mxCell>
        <mxCell id="wzEYDMDRP5SNY_Z7sWcz-5" value="&amp;lt;&amp;lt;click on create&lt;div&gt;accounts&amp;gt;&amp;gt;&lt;/div&gt;" style="edgeLabel;html=1;align=center;verticalAlign=middle;resizable=0;points=[];fontSize=12;" parent="wzEYDMDRP5SNY_Z7sWcz-4" connectable="0" vertex="1">
          <mxGeometry x="-0.0033" y="1" relative="1" as="geometry">
            <mxPoint as="offset" />
          </mxGeometry>
        </mxCell>
        <mxCell id="wzEYDMDRP5SNY_Z7sWcz-7" value="Client" style="rounded=0;whiteSpace=wrap;html=1;fillColor=#dae8fc;strokeColor=#6C8EBF;" parent="wzEYDMDRP5SNY_Z7sWcz-1" vertex="1">
          <mxGeometry x="-185" y="-71" width="89" height="43" as="geometry" />
        </mxCell>
        <mxCell id="wzEYDMDRP5SNY_Z7sWcz-8" value="" style="whiteSpace=wrap;html=1;align=center;rotation=-90;fillColor=#66B2FF;" parent="wzEYDMDRP5SNY_Z7sWcz-1" vertex="1">
          <mxGeometry x="-308.25" y="152.75" width="331.5" height="40" as="geometry" />
        </mxCell>
        <mxCell id="wzEYDMDRP5SNY_Z7sWcz-12" value="" style="endArrow=classic;html=1;rounded=0;fontSize=12;startSize=8;endSize=8;curved=1;" parent="wzEYDMDRP5SNY_Z7sWcz-1" edge="1">
          <mxGeometry width="50" height="50" relative="1" as="geometry">
            <mxPoint x="-122" y="34" as="sourcePoint" />
            <mxPoint x="34" y="34" as="targetPoint" />
          </mxGeometry>
        </mxCell>
        <mxCell id="wzEYDMDRP5SNY_Z7sWcz-13" value="request for creating&lt;div&gt;/editing&lt;br&gt;&lt;div&gt;a new administor account&lt;/div&gt;&lt;/div&gt;" style="edgeLabel;html=1;align=center;verticalAlign=middle;resizable=0;points=[];fontSize=12;" parent="wzEYDMDRP5SNY_Z7sWcz-12" connectable="0" vertex="1">
          <mxGeometry x="-0.0152" y="-2" relative="1" as="geometry">
            <mxPoint x="-3" y="-9" as="offset" />
          </mxGeometry>
        </mxCell>
        <mxCell id="wzEYDMDRP5SNY_Z7sWcz-14" value="Server" style="rounded=0;whiteSpace=wrap;html=1;fillColor=#dae8fc;strokeColor=#6C8EBF;" parent="wzEYDMDRP5SNY_Z7sWcz-1" vertex="1">
          <mxGeometry x="11" y="-71" width="89" height="43" as="geometry" />
        </mxCell>
        <mxCell id="wzEYDMDRP5SNY_Z7sWcz-15" value="" style="whiteSpace=wrap;html=1;align=center;rotation=-90;fillColor=#66B2FF;" parent="wzEYDMDRP5SNY_Z7sWcz-1" vertex="1">
          <mxGeometry x="-81.37" y="122.88" width="271.75" height="40" as="geometry" />
        </mxCell>
        <mxCell id="wzEYDMDRP5SNY_Z7sWcz-16" value="" style="endArrow=none;html=1;rounded=0;dashed=1;dashPattern=1 2;" parent="wzEYDMDRP5SNY_Z7sWcz-1" edge="1">
          <mxGeometry relative="1" as="geometry">
            <mxPoint x="54.5" y="-26" as="sourcePoint" />
            <mxPoint x="54.5" y="9" as="targetPoint" />
          </mxGeometry>
        </mxCell>
        <mxCell id="wzEYDMDRP5SNY_Z7sWcz-17" value="" style="resizable=0;html=1;whiteSpace=wrap;align=left;verticalAlign=bottom;" parent="wzEYDMDRP5SNY_Z7sWcz-16" connectable="0" vertex="1">
          <mxGeometry x="-1" relative="1" as="geometry" />
        </mxCell>
        <mxCell id="wzEYDMDRP5SNY_Z7sWcz-18" value="" style="resizable=0;html=1;whiteSpace=wrap;align=right;verticalAlign=bottom;" parent="wzEYDMDRP5SNY_Z7sWcz-16" connectable="0" vertex="1">
          <mxGeometry x="1" relative="1" as="geometry" />
        </mxCell>
        <mxCell id="wzEYDMDRP5SNY_Z7sWcz-19" value="" style="endArrow=classic;html=1;rounded=0;fontSize=12;startSize=8;endSize=8;curved=1;dashed=1;dashPattern=8 8;" parent="wzEYDMDRP5SNY_Z7sWcz-1" edge="1">
          <mxGeometry width="50" height="50" relative="1" as="geometry">
            <mxPoint x="35" y="182" as="sourcePoint" />
            <mxPoint x="-124" y="182" as="targetPoint" />
          </mxGeometry>
        </mxCell>
        <mxCell id="wzEYDMDRP5SNY_Z7sWcz-20" value="response with success&lt;div&gt;if not repeat username.&lt;/div&gt;&lt;div&gt;otherwise, return failed&lt;/div&gt;" style="edgeLabel;html=1;align=center;verticalAlign=middle;resizable=0;points=[];" parent="wzEYDMDRP5SNY_Z7sWcz-19" vertex="1" connectable="0">
          <mxGeometry x="-0.065" relative="1" as="geometry">
            <mxPoint x="-1" y="-7" as="offset" />
          </mxGeometry>
        </mxCell>
        <mxCell id="wzEYDMDRP5SNY_Z7sWcz-21" value="Database" style="rounded=0;whiteSpace=wrap;html=1;fillColor=#dae8fc;strokeColor=#6C8EBF;" parent="wzEYDMDRP5SNY_Z7sWcz-1" vertex="1">
          <mxGeometry x="212" y="-71" width="89" height="43" as="geometry" />
        </mxCell>
        <mxCell id="wzEYDMDRP5SNY_Z7sWcz-22" value="" style="whiteSpace=wrap;html=1;align=center;rotation=-90;fillColor=#66B2FF;" parent="wzEYDMDRP5SNY_Z7sWcz-1" vertex="1">
          <mxGeometry x="125.75" y="115.75" width="257.5" height="40" as="geometry" />
        </mxCell>
        <mxCell id="wzEYDMDRP5SNY_Z7sWcz-23" value="" style="endArrow=none;html=1;rounded=0;dashed=1;dashPattern=1 2;fontSize=12;startSize=8;endSize=8;curved=1;" parent="wzEYDMDRP5SNY_Z7sWcz-1" edge="1">
          <mxGeometry relative="1" as="geometry">
            <mxPoint x="255.5" y="-27" as="sourcePoint" />
            <mxPoint x="255.5" y="8" as="targetPoint" />
          </mxGeometry>
        </mxCell>
        <mxCell id="wzEYDMDRP5SNY_Z7sWcz-24" value="" style="resizable=0;html=1;whiteSpace=wrap;align=left;verticalAlign=bottom;" parent="wzEYDMDRP5SNY_Z7sWcz-23" connectable="0" vertex="1">
          <mxGeometry x="-1" relative="1" as="geometry" />
        </mxCell>
        <mxCell id="wzEYDMDRP5SNY_Z7sWcz-25" value="" style="resizable=0;html=1;whiteSpace=wrap;align=right;verticalAlign=bottom;" parent="wzEYDMDRP5SNY_Z7sWcz-23" connectable="0" vertex="1">
          <mxGeometry x="1" relative="1" as="geometry" />
        </mxCell>
        <mxCell id="wzEYDMDRP5SNY_Z7sWcz-26" value="" style="endArrow=classic;html=1;rounded=0;fontSize=12;startSize=8;endSize=8;curved=1;entryX=0.553;entryY=0.013;entryDx=0;entryDy=0;entryPerimeter=0;" parent="wzEYDMDRP5SNY_Z7sWcz-1" edge="1">
          <mxGeometry width="50" height="50" relative="1" as="geometry">
            <mxPoint x="76" y="35" as="sourcePoint" />
            <mxPoint x="235.01999999999998" y="35.102499999999964" as="targetPoint" />
          </mxGeometry>
        </mxCell>
        <mxCell id="wzEYDMDRP5SNY_Z7sWcz-27" value="request for adding a&lt;div&gt;new administor acocount&lt;/div&gt;" style="edgeLabel;html=1;align=center;verticalAlign=middle;resizable=0;points=[];fontSize=12;" parent="wzEYDMDRP5SNY_Z7sWcz-26" connectable="0" vertex="1">
          <mxGeometry x="-0.0152" y="-2" relative="1" as="geometry">
            <mxPoint x="-3" y="-1" as="offset" />
          </mxGeometry>
        </mxCell>
        <mxCell id="wzEYDMDRP5SNY_Z7sWcz-31" value="" style="rounded=0;whiteSpace=wrap;html=1;fillColor=#f0a30a;strokeColor=#BD7000;fontColor=#000000;" parent="wzEYDMDRP5SNY_Z7sWcz-1" vertex="1">
          <mxGeometry x="-137" y="232" width="46" height="72" as="geometry" />
        </mxCell>
        <mxCell id="wzEYDMDRP5SNY_Z7sWcz-32" value="" style="edgeStyle=elbowEdgeStyle;elbow=horizontal;endArrow=classic;html=1;curved=0;rounded=0;endSize=8;startSize=8;fontSize=12;entryX=1;entryY=0.75;entryDx=0;entryDy=0;" parent="wzEYDMDRP5SNY_Z7sWcz-1" edge="1">
          <mxGeometry width="50" height="50" relative="1" as="geometry">
            <mxPoint x="-91" y="247" as="sourcePoint" />
            <mxPoint x="-91" y="286" as="targetPoint" />
            <Array as="points">
              <mxPoint x="11" y="268" />
            </Array>
          </mxGeometry>
        </mxCell>
        <mxCell id="wzEYDMDRP5SNY_Z7sWcz-33" value="if failed, prompt&amp;nbsp;&lt;div&gt;for editing again&amp;nbsp;&lt;/div&gt;" style="edgeLabel;html=1;align=center;verticalAlign=middle;resizable=0;points=[];fontSize=12;" parent="wzEYDMDRP5SNY_Z7sWcz-32" vertex="1" connectable="0">
          <mxGeometry x="-0.6331" y="2" relative="1" as="geometry">
            <mxPoint x="9" y="9" as="offset" />
          </mxGeometry>
        </mxCell>
        <mxCell id="wzEYDMDRP5SNY_Z7sWcz-34" value="" style="endArrow=classic;html=1;rounded=0;fontSize=12;startSize=8;endSize=8;curved=1;dashed=1;dashPattern=8 8;" parent="wzEYDMDRP5SNY_Z7sWcz-1" edge="1">
          <mxGeometry width="50" height="50" relative="1" as="geometry">
            <mxPoint x="233" y="186" as="sourcePoint" />
            <mxPoint x="74" y="186" as="targetPoint" />
          </mxGeometry>
        </mxCell>
        <mxCell id="wzEYDMDRP5SNY_Z7sWcz-35" value="response with new&lt;div&gt;account information&lt;/div&gt;&lt;div&gt;or fail (if repeat)&lt;/div&gt;" style="edgeLabel;html=1;align=center;verticalAlign=middle;resizable=0;points=[];" parent="wzEYDMDRP5SNY_Z7sWcz-34" vertex="1" connectable="0">
          <mxGeometry x="-0.065" relative="1" as="geometry">
            <mxPoint x="-1" y="-7" as="offset" />
          </mxGeometry>
        </mxCell>
        <mxCell id="wzEYDMDRP5SNY_Z7sWcz-43" value="" style="endArrow=none;html=1;rounded=0;dashed=1;dashPattern=1 2;" parent="wzEYDMDRP5SNY_Z7sWcz-1" target="wzEYDMDRP5SNY_Z7sWcz-72" edge="1">
          <mxGeometry relative="1" as="geometry">
            <mxPoint x="52.5" y="280" as="sourcePoint" />
            <mxPoint x="52.5" y="372" as="targetPoint" />
          </mxGeometry>
        </mxCell>
        <mxCell id="wzEYDMDRP5SNY_Z7sWcz-44" value="" style="resizable=0;html=1;whiteSpace=wrap;align=left;verticalAlign=bottom;" parent="wzEYDMDRP5SNY_Z7sWcz-43" connectable="0" vertex="1">
          <mxGeometry x="-1" relative="1" as="geometry" />
        </mxCell>
        <mxCell id="wzEYDMDRP5SNY_Z7sWcz-45" value="" style="resizable=0;html=1;whiteSpace=wrap;align=right;verticalAlign=bottom;" parent="wzEYDMDRP5SNY_Z7sWcz-43" connectable="0" vertex="1">
          <mxGeometry x="1" relative="1" as="geometry" />
        </mxCell>
        <mxCell id="wzEYDMDRP5SNY_Z7sWcz-46" value="" style="endArrow=none;html=1;rounded=0;dashed=1;dashPattern=1 2;entryX=1;entryY=0.5;entryDx=0;entryDy=0;" parent="wzEYDMDRP5SNY_Z7sWcz-1" target="wzEYDMDRP5SNY_Z7sWcz-77" edge="1">
          <mxGeometry relative="1" as="geometry">
            <mxPoint x="253.83" y="266" as="sourcePoint" />
            <mxPoint x="254" y="379" as="targetPoint" />
          </mxGeometry>
        </mxCell>
        <mxCell id="wzEYDMDRP5SNY_Z7sWcz-47" value="" style="resizable=0;html=1;whiteSpace=wrap;align=left;verticalAlign=bottom;" parent="wzEYDMDRP5SNY_Z7sWcz-46" connectable="0" vertex="1">
          <mxGeometry x="-1" relative="1" as="geometry" />
        </mxCell>
        <mxCell id="wzEYDMDRP5SNY_Z7sWcz-64" value="" style="endArrow=classic;html=1;rounded=0;fontSize=12;startSize=8;endSize=8;curved=1;entryX=0.576;entryY=0.071;entryDx=0;entryDy=0;entryPerimeter=0;" parent="wzEYDMDRP5SNY_Z7sWcz-1" edge="1">
          <mxGeometry width="50" height="50" relative="1" as="geometry">
            <mxPoint x="-333" y="509.28" as="sourcePoint" />
            <mxPoint x="-162.65999999999985" y="509" as="targetPoint" />
          </mxGeometry>
        </mxCell>
        <mxCell id="wzEYDMDRP5SNY_Z7sWcz-65" value="&amp;lt;&amp;lt;click on delete accounts&amp;gt;&amp;gt;" style="edgeLabel;html=1;align=center;verticalAlign=middle;resizable=0;points=[];fontSize=12;" parent="wzEYDMDRP5SNY_Z7sWcz-64" connectable="0" vertex="1">
          <mxGeometry x="-0.0033" y="1" relative="1" as="geometry">
            <mxPoint x="-8" as="offset" />
          </mxGeometry>
        </mxCell>
        <mxCell id="wzEYDMDRP5SNY_Z7sWcz-66" value="" style="whiteSpace=wrap;html=1;align=center;rotation=-90;fillColor=#66B2FF;" parent="wzEYDMDRP5SNY_Z7sWcz-1" vertex="1">
          <mxGeometry x="-218" y="477.5" width="155" height="40" as="geometry" />
        </mxCell>
        <mxCell id="wzEYDMDRP5SNY_Z7sWcz-67" value="" style="endArrow=none;html=1;rounded=0;dashed=1;dashPattern=1 2;exitX=0;exitY=0.5;exitDx=0;exitDy=0;" parent="wzEYDMDRP5SNY_Z7sWcz-1" source="wzEYDMDRP5SNY_Z7sWcz-8" edge="1">
          <mxGeometry relative="1" as="geometry">
            <mxPoint x="-142" y="372" as="sourcePoint" />
            <mxPoint x="-141.5" y="421" as="targetPoint" />
          </mxGeometry>
        </mxCell>
        <mxCell id="wzEYDMDRP5SNY_Z7sWcz-69" value="" style="resizable=0;html=1;whiteSpace=wrap;align=right;verticalAlign=bottom;" parent="wzEYDMDRP5SNY_Z7sWcz-67" connectable="0" vertex="1">
          <mxGeometry x="1" relative="1" as="geometry">
            <mxPoint as="offset" />
          </mxGeometry>
        </mxCell>
        <mxCell id="wzEYDMDRP5SNY_Z7sWcz-70" value="" style="endArrow=classic;html=1;rounded=0;fontSize=12;startSize=8;endSize=8;curved=1;" parent="wzEYDMDRP5SNY_Z7sWcz-1" edge="1">
          <mxGeometry width="50" height="50" relative="1" as="geometry">
            <mxPoint x="-122" y="447" as="sourcePoint" />
            <mxPoint x="34" y="447" as="targetPoint" />
          </mxGeometry>
        </mxCell>
        <mxCell id="wzEYDMDRP5SNY_Z7sWcz-71" value="request delete the account" style="edgeLabel;html=1;align=center;verticalAlign=middle;resizable=0;points=[];fontSize=12;" parent="wzEYDMDRP5SNY_Z7sWcz-70" connectable="0" vertex="1">
          <mxGeometry x="-0.0152" y="-2" relative="1" as="geometry">
            <mxPoint x="-3" y="-9" as="offset" />
          </mxGeometry>
        </mxCell>
        <mxCell id="wzEYDMDRP5SNY_Z7sWcz-72" value="" style="whiteSpace=wrap;html=1;align=center;rotation=-90;fillColor=#66B2FF;" parent="wzEYDMDRP5SNY_Z7sWcz-1" vertex="1">
          <mxGeometry x="-25" y="477.5" width="155" height="40" as="geometry" />
        </mxCell>
        <mxCell id="wzEYDMDRP5SNY_Z7sWcz-73" value="" style="endArrow=classic;html=1;rounded=0;fontSize=12;startSize=8;endSize=8;curved=1;dashed=1;dashPattern=8 8;" parent="wzEYDMDRP5SNY_Z7sWcz-1" edge="1">
          <mxGeometry width="50" height="50" relative="1" as="geometry">
            <mxPoint x="36" y="527" as="sourcePoint" />
            <mxPoint x="-123" y="527" as="targetPoint" />
          </mxGeometry>
        </mxCell>
        <mxCell id="wzEYDMDRP5SNY_Z7sWcz-74" value="response with delete&amp;nbsp;&lt;div&gt;successfully&lt;/div&gt;" style="edgeLabel;html=1;align=center;verticalAlign=middle;resizable=0;points=[];" parent="wzEYDMDRP5SNY_Z7sWcz-73" vertex="1" connectable="0">
          <mxGeometry x="-0.065" relative="1" as="geometry">
            <mxPoint x="-1" y="-8" as="offset" />
          </mxGeometry>
        </mxCell>
        <mxCell id="wzEYDMDRP5SNY_Z7sWcz-75" value="" style="endArrow=classic;html=1;rounded=0;fontSize=12;startSize=8;endSize=8;curved=1;entryX=0.553;entryY=0.013;entryDx=0;entryDy=0;entryPerimeter=0;" parent="wzEYDMDRP5SNY_Z7sWcz-1" edge="1">
          <mxGeometry width="50" height="50" relative="1" as="geometry">
            <mxPoint x="73" y="448" as="sourcePoint" />
            <mxPoint x="232" y="448" as="targetPoint" />
          </mxGeometry>
        </mxCell>
        <mxCell id="wzEYDMDRP5SNY_Z7sWcz-76" value="request to delete the&lt;div&gt;account&lt;/div&gt;" style="edgeLabel;html=1;align=center;verticalAlign=middle;resizable=0;points=[];fontSize=12;" parent="wzEYDMDRP5SNY_Z7sWcz-75" connectable="0" vertex="1">
          <mxGeometry x="-0.0152" y="-2" relative="1" as="geometry">
            <mxPoint x="-3" y="-1" as="offset" />
          </mxGeometry>
        </mxCell>
        <mxCell id="wzEYDMDRP5SNY_Z7sWcz-77" value="" style="whiteSpace=wrap;html=1;align=center;rotation=-90;fillColor=#66B2FF;" parent="wzEYDMDRP5SNY_Z7sWcz-1" vertex="1">
          <mxGeometry x="174" y="474" width="155" height="40" as="geometry" />
        </mxCell>
        <mxCell id="wzEYDMDRP5SNY_Z7sWcz-78" value="" style="endArrow=classic;html=1;rounded=0;fontSize=12;startSize=8;endSize=8;curved=1;dashed=1;dashPattern=8 8;" parent="wzEYDMDRP5SNY_Z7sWcz-1" edge="1">
          <mxGeometry width="50" height="50" relative="1" as="geometry">
            <mxPoint x="232" y="526" as="sourcePoint" />
            <mxPoint x="73" y="526" as="targetPoint" />
          </mxGeometry>
        </mxCell>
        <mxCell id="wzEYDMDRP5SNY_Z7sWcz-79" value="response with delete&amp;nbsp;&lt;div&gt;successfully&lt;/div&gt;" style="edgeLabel;html=1;align=center;verticalAlign=middle;resizable=0;points=[];" parent="wzEYDMDRP5SNY_Z7sWcz-78" vertex="1" connectable="0">
          <mxGeometry x="-0.065" relative="1" as="geometry">
            <mxPoint x="-1" y="-8" as="offset" />
          </mxGeometry>
        </mxCell>
        <mxCell id="FZFE9woW7JHfcSV_sJS1-3" value="" style="endArrow=none;html=1;rounded=0;dashed=1;dashPattern=1 2;" parent="wzEYDMDRP5SNY_Z7sWcz-1" edge="1">
          <mxGeometry relative="1" as="geometry">
            <mxPoint x="-144.5" y="-26" as="sourcePoint" />
            <mxPoint x="-144.5" y="9" as="targetPoint" />
          </mxGeometry>
        </mxCell>
        <mxCell id="FZFE9woW7JHfcSV_sJS1-4" value="" style="resizable=0;html=1;whiteSpace=wrap;align=left;verticalAlign=bottom;" parent="FZFE9woW7JHfcSV_sJS1-3" connectable="0" vertex="1">
          <mxGeometry x="-1" relative="1" as="geometry" />
        </mxCell>
        <mxCell id="FZFE9woW7JHfcSV_sJS1-5" value="" style="resizable=0;html=1;whiteSpace=wrap;align=right;verticalAlign=bottom;" parent="FZFE9woW7JHfcSV_sJS1-3" connectable="0" vertex="1">
          <mxGeometry x="1" relative="1" as="geometry" />
        </mxCell>
      </root>
    </mxGraphModel>
  </diagram>
</mxfile>
